<svg width="1146" height="193" viewBox="0 0 1146 193" fill="none" xmlns="http://www.w3.org/2000/svg">
<g clip-path="url(#clip0_2_148)">
<path d="M48.01 0H60.9V5.39H53.4V10.78H60.9V16.17H48.01V0ZM63.475 0H76.37V4.69H68.87V5.625H76.37V16.405H63.475V11.485H70.975V10.545H63.475V0ZM78.95 0H91.835V4.69H84.335V5.625H91.835V16.405H78.95V11.485H86.45V10.545H78.95V0Z" fill="#4C4C6D"/>
<path fill-rule="evenodd" clip-rule="evenodd" d="M70.455 120L35.735 110.36L25.5 23.585H115.5L105.27 110.35L70.455 120ZM45.735 62.865L46.69 73.505H83.575L82.34 87.305L70.47 90.515H70.46L58.61 87.315L57.85 78.83H47.165L48.655 95.54L70.455 101.59L92.29 95.54L94.95 65.72L95.21 62.865L97.13 41.32H43.82L44.79 51.965H85.47L84.5 62.865H45.735Z" fill="#4C4C6D"/>
</g>
<path d="M61.6571 154.24C60.3931 154.24 59.4251 153.88 58.7531 153.16C58.0971 152.44 57.7691 151.424 57.7691 150.112V141.088C57.7691 139.776 58.0971 138.76 58.7531 138.04C59.4251 137.32 60.3931 136.96 61.6571 136.96C62.9211 136.96 63.8811 137.32 64.5371 138.04C65.2091 138.76 65.5451 139.776 65.5451 141.088V142.864H63.0491V140.92C63.0491 139.88 62.6091 139.36 61.7291 139.36C60.8491 139.36 60.4091 139.88 60.4091 140.92V150.304C60.4091 151.328 60.8491 151.84 61.7291 151.84C62.6091 151.84 63.0491 151.328 63.0491 150.304V147.736H65.5451V150.112C65.5451 151.424 65.2091 152.44 64.5371 153.16C63.8811 153.88 62.9211 154.24 61.6571 154.24ZM70.6035 154.24C69.3235 154.24 68.3555 153.88 67.6995 153.16C67.0435 152.424 66.7155 151.376 66.7155 150.016V149.056H69.2115V150.208C69.2115 151.296 69.6675 151.84 70.5795 151.84C71.0275 151.84 71.3635 151.712 71.5875 151.456C71.8275 151.184 71.9475 150.752 71.9475 150.16C71.9475 149.456 71.7875 148.84 71.4675 148.312C71.1475 147.768 70.5555 147.12 69.6915 146.368C68.6035 145.408 67.8435 144.544 67.4115 143.776C66.9795 142.992 66.7635 142.112 66.7635 141.136C66.7635 139.808 67.0995 138.784 67.7715 138.064C68.4435 137.328 69.4195 136.96 70.6995 136.96C71.9635 136.96 72.9155 137.328 73.5555 138.064C74.2115 138.784 74.5395 139.824 74.5395 141.184V141.88H72.0435V141.016C72.0435 140.44 71.9315 140.024 71.7075 139.768C71.4835 139.496 71.1555 139.36 70.7235 139.36C69.8435 139.36 69.4035 139.896 69.4035 140.968C69.4035 141.576 69.5635 142.144 69.8835 142.672C70.2195 143.2 70.8195 143.84 71.6835 144.592C72.7875 145.552 73.5475 146.424 73.9635 147.208C74.3795 147.992 74.5875 148.912 74.5875 149.968C74.5875 151.344 74.2435 152.4 73.5555 153.136C72.8835 153.872 71.8995 154.24 70.6035 154.24ZM79.5332 154.24C78.2532 154.24 77.2852 153.88 76.6292 153.16C75.9732 152.424 75.6452 151.376 75.6452 150.016V149.056H78.1412V150.208C78.1412 151.296 78.5972 151.84 79.5092 151.84C79.9572 151.84 80.2932 151.712 80.5172 151.456C80.7572 151.184 80.8772 150.752 80.8772 150.16C80.8772 149.456 80.7172 148.84 80.3972 148.312C80.0772 147.768 79.4852 147.12 78.6212 146.368C77.5332 145.408 76.7732 144.544 76.3412 143.776C75.9092 142.992 75.6932 142.112 75.6932 141.136C75.6932 139.808 76.0292 138.784 76.7012 138.064C77.3732 137.328 78.3492 136.96 79.6292 136.96C80.8932 136.96 81.8452 137.328 82.4852 138.064C83.1412 138.784 83.4692 139.824 83.4692 141.184V141.88H80.9732V141.016C80.9732 140.44 80.8612 140.024 80.6372 139.768C80.4132 139.496 80.0852 139.36 79.6532 139.36C78.7732 139.36 78.3332 139.896 78.3332 140.968C78.3332 141.576 78.4932 142.144 78.8132 142.672C79.1492 143.2 79.7492 143.84 80.6132 144.592C81.7172 145.552 82.4772 146.424 82.8932 147.208C83.3092 147.992 83.5172 148.912 83.5172 149.968C83.5172 151.344 83.1732 152.4 82.4852 153.136C81.8132 153.872 80.8292 154.24 79.5332 154.24Z" fill="#4C4C6D"/>
<g clip-path="url(#clip1_2_148)">
<mask id="mask0_2_148" style="mask-type:luminance" maskUnits="userSpaceOnUse" x="345" y="0" width="121" height="120">
<path d="M345.5 0H465.5V120H345.5V0Z" fill="white"/>
</mask>
<g mask="url(#mask0_2_148)">
<path d="M370.9 0H376.31V5.345H381.26V0H386.67V16.18H381.26V10.765H376.31V16.18H370.905L370.9 0ZM393.78 5.365H389.02V0H403.955V5.365H399.19V16.18H393.78V5.365ZM406.325 0H411.965L415.435 5.685L418.9 0H424.54V16.18H419.155V8.16L415.435 13.915H415.34L411.615 8.165V16.18H406.325V0ZM427.23 0H432.645V10.835H440.245V16.185H427.23V0Z" fill="#4C4C6D"/>
<path fill-rule="evenodd" clip-rule="evenodd" d="M370.73 110.36L360.5 23.585H450.5L440.265 110.35L405.45 120L370.73 110.36ZM391.415 62.86L390.445 51.96H431.17L432.12 41.32H378.82L381.69 73.505H418.575L417.34 87.305L405.47 90.515H405.46L393.61 87.315L392.85 78.83H382.16L383.65 95.54L405.45 101.59L427.285 95.54L429.945 65.72L430.205 62.865H391.415V62.86Z" fill="#4C4C6D"/>
</g>
</g>
<path d="M386.492 137.2H389.132V144.04H391.964V137.2H394.604V154H391.964V146.44H389.132V154H386.492V137.2ZM398.634 139.6H395.874V137.2H404.034V139.6H401.274V154H398.634V139.6ZM405.312 137.2H409.08L410.76 149.224H410.808L412.488 137.2H416.256V154H413.76V141.28H413.712L411.792 154H409.584L407.664 141.28H407.616V154H405.312V137.2ZM418.226 137.2H420.866V151.6H425.21V154H418.226V137.2Z" fill="#4C4C6D"/>
<path d="M710.5 15C706.522 15 702.706 16.5804 699.893 19.3934C697.08 22.2064 695.5 26.0218 695.5 30V90C695.5 93.9782 697.08 97.7936 699.893 100.607C702.706 103.42 706.522 105 710.5 105H770.5C774.478 105 778.294 103.42 781.107 100.607C783.92 97.7936 785.5 93.9782 785.5 90V30C785.5 26.0218 783.92 22.2064 781.107 19.3934C778.294 16.5804 774.478 15 770.5 15H710.5ZM747.17 80.275C750.77 83.175 754.36 84.6 757.95 84.565C760.15 84.565 761.84 84.165 763.01 83.355C763.556 83.0004 764.001 82.5096 764.3 81.9309C764.599 81.3523 764.742 80.7058 764.715 80.055C764.722 79.3452 764.574 78.6425 764.28 77.9963C763.986 77.3501 763.555 76.7762 763.015 76.315C761.84 75.29 759.62 74.265 756.355 73.235C752.435 72.1 749.405 70.635 747.28 68.835C745.19 67.035 744.13 64.525 744.09 61.3C744.09 58.255 745.41 55.71 748.05 53.655C750.62 51.605 753.9 50.575 757.9 50.575C763.47 50.575 767.945 51.93 771.315 54.645L767.465 60.64C766.079 59.5618 764.489 58.776 762.79 58.33C761.264 57.8195 759.669 57.5414 758.06 57.505C756.16 57.505 754.635 57.855 753.495 58.55C752.36 59.25 751.795 60.165 751.795 61.3C751.795 62.55 752.49 63.61 753.88 64.49C755.28 65.335 757.66 66.27 761.03 67.295C765.1 68.505 768 70.12 769.72 72.135C771.445 74.15 772.305 76.72 772.305 79.835C772.305 83.025 771.08 85.775 768.62 88.085C766.2 90.36 762.68 91.55 758.06 91.66C752.01 91.66 746.95 89.845 742.88 86.215L747.17 80.275ZM719.52 83.465C720.695 84.2 722.105 84.565 723.755 84.565C725.48 84.565 726.905 84.07 728.045 83.08C729.18 82.055 729.75 80.275 729.75 77.745V51.235H737.175V79.175C737.065 83.5 735.82 86.62 733.435 88.525C732.134 89.6316 730.617 90.4556 728.98 90.945C727.464 91.4069 725.89 91.6477 724.305 91.66C721.555 91.66 719.115 91.185 716.99 90.23C714.715 89.205 712.81 87.39 711.27 84.785L716.44 80.55C717.39 81.835 718.42 82.805 719.52 83.465Z" fill="#4C4C6D"/>
<path d="M725.397 154.096C724.917 154.096 724.509 154.064 724.173 154V151.6C724.429 151.664 724.717 151.696 725.037 151.696C725.565 151.696 725.957 151.568 726.213 151.312C726.469 151.04 726.597 150.632 726.597 150.088V137.2H729.237V150.016C729.237 151.392 728.917 152.416 728.277 153.088C727.653 153.76 726.693 154.096 725.397 154.096ZM733.165 137.2H736.741L739.477 154H736.837L736.357 150.664V150.712H733.357L732.877 154H730.429L733.165 137.2ZM736.045 148.432L734.869 140.128H734.821L733.669 148.432H736.045ZM739.382 137.2H742.046L743.774 150.232H743.822L745.55 137.2H747.974L745.43 154H741.926L739.382 137.2ZM750.602 137.2H754.178L756.914 154H754.274L753.794 150.664V150.712H750.794L750.314 154H747.866L750.602 137.2ZM753.482 148.432L752.306 140.128H752.258L751.106 148.432H753.482ZM719.686 183.24C718.406 183.24 717.438 182.88 716.782 182.16C716.126 181.424 715.798 180.376 715.798 179.016V178.056H718.294V179.208C718.294 180.296 718.75 180.84 719.662 180.84C720.11 180.84 720.446 180.712 720.67 180.456C720.91 180.184 721.03 179.752 721.03 179.16C721.03 178.456 720.87 177.84 720.55 177.312C720.23 176.768 719.638 176.12 718.774 175.368C717.686 174.408 716.926 173.544 716.494 172.776C716.062 171.992 715.846 171.112 715.846 170.136C715.846 168.808 716.182 167.784 716.854 167.064C717.526 166.328 718.502 165.96 719.782 165.96C721.046 165.96 721.998 166.328 722.638 167.064C723.294 167.784 723.622 168.824 723.622 170.184V170.88H721.126V170.016C721.126 169.44 721.014 169.024 720.79 168.768C720.566 168.496 720.238 168.36 719.806 168.36C718.926 168.36 718.486 168.896 718.486 169.968C718.486 170.576 718.646 171.144 718.966 171.672C719.302 172.2 719.902 172.84 720.766 173.592C721.87 174.552 722.63 175.424 723.046 176.208C723.462 176.992 723.67 177.912 723.67 178.968C723.67 180.344 723.326 181.4 722.638 182.136C721.966 182.872 720.982 183.24 719.686 183.24ZM728.903 183.24C727.639 183.24 726.671 182.88 725.999 182.16C725.343 181.44 725.015 180.424 725.015 179.112V170.088C725.015 168.776 725.343 167.76 725.999 167.04C726.671 166.32 727.639 165.96 728.903 165.96C730.167 165.96 731.127 166.32 731.783 167.04C732.455 167.76 732.791 168.776 732.791 170.088V171.864H730.295V169.92C730.295 168.88 729.855 168.36 728.975 168.36C728.095 168.36 727.655 168.88 727.655 169.92V179.304C727.655 180.328 728.095 180.84 728.975 180.84C729.855 180.84 730.295 180.328 730.295 179.304V176.736H732.791V179.112C732.791 180.424 732.455 181.44 731.783 182.16C731.127 182.88 730.167 183.24 728.903 183.24ZM734.371 166.2H738.283C739.643 166.2 740.635 166.52 741.259 167.16C741.883 167.784 742.195 168.752 742.195 170.064V171.096C742.195 172.84 741.619 173.944 740.467 174.408V174.456C741.107 174.648 741.555 175.04 741.811 175.632C742.083 176.224 742.219 177.016 742.219 178.008V180.96C742.219 181.44 742.235 181.832 742.267 182.136C742.299 182.424 742.379 182.712 742.507 183H739.819C739.723 182.728 739.659 182.472 739.627 182.232C739.595 181.992 739.579 181.56 739.579 180.936V177.864C739.579 177.096 739.451 176.56 739.195 176.256C738.955 175.952 738.531 175.8 737.923 175.8H737.011V183H734.371V166.2ZM737.971 173.4C738.499 173.4 738.891 173.264 739.147 172.992C739.419 172.72 739.555 172.264 739.555 171.624V170.328C739.555 169.72 739.443 169.28 739.219 169.008C739.011 168.736 738.675 168.6 738.211 168.6H737.011V173.4H737.971ZM744.05 166.2H746.69V183H744.05V166.2ZM748.668 166.2H752.556C753.868 166.2 754.852 166.552 755.508 167.256C756.164 167.96 756.492 168.992 756.492 170.352V172.008C756.492 173.368 756.164 174.4 755.508 175.104C754.852 175.808 753.868 176.16 752.556 176.16H751.308V183H748.668V166.2ZM752.556 173.76C752.988 173.76 753.308 173.64 753.516 173.4C753.74 173.16 753.852 172.752 753.852 172.176V170.184C753.852 169.608 753.74 169.2 753.516 168.96C753.308 168.72 752.988 168.6 752.556 168.6H751.308V173.76H752.556ZM760.036 168.6H757.276V166.2H765.436V168.6H762.676V183H760.036V168.6Z" fill="#4C4C6D"/>
<path fill-rule="evenodd" clip-rule="evenodd" d="M1058.83 47.085C1057.14 47.085 1055.46 47.4191 1053.89 48.0681C1052.33 48.7171 1050.9 49.6684 1049.7 50.8677C1048.5 52.067 1047.55 53.4907 1046.9 55.0576C1046.25 56.6246 1045.92 58.304 1045.92 60C1045.92 61.696 1046.25 63.3754 1046.9 64.9424C1047.55 66.5093 1048.5 67.933 1049.7 69.1323C1050.9 70.3316 1052.33 71.2829 1053.89 71.9319C1055.46 72.5809 1057.14 72.915 1058.83 72.915H1071.75V60.26C1071.75 60.0867 1071.75 59.9133 1071.75 59.74V47.085H1058.83ZM1071.75 39.585H1058.83C1055.41 39.585 1052.12 38.2241 1049.7 35.8016C1047.28 33.3791 1045.92 30.0934 1045.92 26.6675C1045.92 23.2416 1047.28 19.9559 1049.7 17.5334C1052.12 15.1109 1055.41 13.75 1058.83 13.75H1071.75V39.585ZM1079.25 13.75V39.585H1092.16C1095.55 39.5185 1098.77 38.1283 1101.14 35.713C1103.5 33.2978 1104.83 30.0501 1104.83 26.6675C1104.83 23.2849 1103.5 20.0372 1101.14 17.622C1098.77 15.2067 1095.55 13.8165 1092.16 13.75H1079.25ZM1092.16 47.08C1088.77 47.0796 1085.52 48.4121 1083.1 50.79C1080.69 53.1678 1079.3 56.4004 1079.25 59.79V60.205C1079.29 62.75 1080.08 65.226 1081.53 67.3221C1082.97 69.4181 1085 71.0407 1087.37 71.9861C1089.73 72.9315 1092.32 73.1575 1094.81 72.6357C1097.3 72.1139 1099.58 70.8676 1101.37 69.0533C1103.15 67.2391 1104.36 64.9377 1104.85 62.4384C1105.33 59.939 1105.06 57.3531 1104.08 55.0054C1103.09 52.6577 1101.44 50.6529 1099.32 49.2428C1097.2 47.8328 1094.71 47.0803 1092.16 47.08ZM1058.83 80.415C1056.28 80.414 1053.78 81.1709 1051.66 82.59C1049.53 84.009 1047.87 86.0265 1046.89 88.3873C1045.92 90.748 1045.66 93.3459 1046.16 95.8525C1046.66 98.3591 1047.89 100.662 1049.69 102.469C1051.5 104.276 1053.8 105.507 1056.31 106.006C1058.81 106.505 1061.41 106.25 1063.77 105.272C1066.13 104.294 1068.15 102.638 1069.57 100.513C1070.99 98.3887 1071.75 95.8905 1071.75 93.335V80.415H1058.83Z" fill="#4C4C6D"/>
<path d="M1054.09 137.2H1061.07V139.6H1056.73V144.28H1060.14V146.68H1056.73V154H1054.09V137.2ZM1062.34 137.2H1064.98V154H1062.34V137.2ZM1070.7 154.24C1069.42 154.24 1068.44 153.88 1067.77 153.16C1067.1 152.424 1066.76 151.376 1066.76 150.016V141.184C1066.76 139.824 1067.1 138.784 1067.77 138.064C1068.44 137.328 1069.42 136.96 1070.7 136.96C1071.98 136.96 1072.96 137.328 1073.63 138.064C1074.3 138.784 1074.64 139.824 1074.64 141.184V142.624H1072.14V141.016C1072.14 139.912 1071.68 139.36 1070.77 139.36C1069.86 139.36 1069.4 139.912 1069.4 141.016V150.208C1069.4 151.296 1069.86 151.84 1070.77 151.84C1071.68 151.84 1072.14 151.296 1072.14 150.208V146.92H1070.82V144.52H1074.64V150.016C1074.64 151.376 1074.3 152.424 1073.63 153.16C1072.96 153.88 1071.98 154.24 1070.7 154.24ZM1076.33 137.2H1080.1L1081.78 149.224H1081.83L1083.51 137.2H1087.28V154H1084.78V141.28H1084.73L1082.81 154H1080.6L1078.68 141.28H1078.64V154H1076.33V137.2ZM1091.29 137.2H1094.86L1097.6 154H1094.96L1094.48 150.664V150.712H1091.48L1091 154H1088.55L1091.29 137.2ZM1094.17 148.432L1092.99 140.128H1092.94L1091.79 148.432H1094.17Z" fill="#4C4C6D"/>
<defs>
<clipPath id="clip0_2_148">
<rect width="120" height="120" fill="white" transform="translate(10.5)"/>
</clipPath>
<clipPath id="clip1_2_148">
<rect width="120" height="120" fill="white" transform="translate(345.5)"/>
</clipPath>
</defs>
</svg>
