<svg width="121" height="169" viewBox="0 0 121 169" fill="none" xmlns="http://www.w3.org/2000/svg">
<g clip-path="url(#clip0_2_149)">
<path d="M38.01 0H50.9V5.39H43.4V10.78H50.9V16.17H38.01V0ZM53.475 0H66.37V4.69H58.87V5.625H66.37V16.405H53.475V11.485H60.975V10.545H53.475V0ZM68.95 0H81.835V4.69H74.335V5.625H81.835V16.405H68.95V11.485H76.45V10.545H68.95V0Z" fill="#4C4C6D"/>
<path fill-rule="evenodd" clip-rule="evenodd" d="M60.455 120L25.735 110.36L15.5 23.585H105.5L95.27 110.35L60.455 120ZM35.735 62.865L36.69 73.505H73.575L72.34 87.305L60.47 90.515H60.46L48.61 87.315L47.85 78.83H37.165L38.655 95.54L60.455 101.59L82.29 95.54L84.95 65.72L85.21 62.865L87.13 41.32H33.82L34.79 51.965H75.47L74.5 62.865H35.735Z" fill="#4C4C6D"/>
</g>
<path d="M51.6571 154.24C50.3931 154.24 49.4251 153.88 48.7531 153.16C48.0971 152.44 47.7691 151.424 47.7691 150.112V141.088C47.7691 139.776 48.0971 138.76 48.7531 138.04C49.4251 137.32 50.3931 136.96 51.6571 136.96C52.9211 136.96 53.8811 137.32 54.5371 138.04C55.2091 138.76 55.5451 139.776 55.5451 141.088V142.864H53.0491V140.92C53.0491 139.88 52.6091 139.36 51.7291 139.36C50.8491 139.36 50.4091 139.88 50.4091 140.92V150.304C50.4091 151.328 50.8491 151.84 51.7291 151.84C52.6091 151.84 53.0491 151.328 53.0491 150.304V147.736H55.5451V150.112C55.5451 151.424 55.2091 152.44 54.5371 153.16C53.8811 153.88 52.9211 154.24 51.6571 154.24ZM60.6035 154.24C59.3235 154.24 58.3555 153.88 57.6995 153.16C57.0435 152.424 56.7155 151.376 56.7155 150.016V149.056H59.2115V150.208C59.2115 151.296 59.6675 151.84 60.5795 151.84C61.0275 151.84 61.3635 151.712 61.5875 151.456C61.8275 151.184 61.9475 150.752 61.9475 150.16C61.9475 149.456 61.7875 148.84 61.4675 148.312C61.1475 147.768 60.5555 147.12 59.6915 146.368C58.6035 145.408 57.8435 144.544 57.4115 143.776C56.9795 142.992 56.7635 142.112 56.7635 141.136C56.7635 139.808 57.0995 138.784 57.7715 138.064C58.4435 137.328 59.4195 136.96 60.6995 136.96C61.9635 136.96 62.9155 137.328 63.5555 138.064C64.2115 138.784 64.5395 139.824 64.5395 141.184V141.88H62.0435V141.016C62.0435 140.44 61.9315 140.024 61.7075 139.768C61.4835 139.496 61.1555 139.36 60.7235 139.36C59.8435 139.36 59.4035 139.896 59.4035 140.968C59.4035 141.576 59.5635 142.144 59.8835 142.672C60.2195 143.2 60.8195 143.84 61.6835 144.592C62.7875 145.552 63.5475 146.424 63.9635 147.208C64.3795 147.992 64.5875 148.912 64.5875 149.968C64.5875 151.344 64.2435 152.4 63.5555 153.136C62.8835 153.872 61.8995 154.24 60.6035 154.24ZM69.5332 154.24C68.2532 154.24 67.2852 153.88 66.6292 153.16C65.9732 152.424 65.6452 151.376 65.6452 150.016V149.056H68.1412V150.208C68.1412 151.296 68.5972 151.84 69.5092 151.84C69.9572 151.84 70.2932 151.712 70.5172 151.456C70.7572 151.184 70.8772 150.752 70.8772 150.16C70.8772 149.456 70.7172 148.84 70.3972 148.312C70.0772 147.768 69.4852 147.12 68.6212 146.368C67.5332 145.408 66.7732 144.544 66.3412 143.776C65.9092 142.992 65.6932 142.112 65.6932 141.136C65.6932 139.808 66.0292 138.784 66.7012 138.064C67.3732 137.328 68.3492 136.96 69.6292 136.96C70.8932 136.96 71.8452 137.328 72.4852 138.064C73.1412 138.784 73.4692 139.824 73.4692 141.184V141.88H70.9732V141.016C70.9732 140.44 70.8612 140.024 70.6372 139.768C70.4132 139.496 70.0852 139.36 69.6532 139.36C68.7732 139.36 68.3332 139.896 68.3332 140.968C68.3332 141.576 68.4932 142.144 68.8132 142.672C69.1492 143.2 69.7492 143.84 70.6132 144.592C71.7172 145.552 72.4772 146.424 72.8932 147.208C73.3092 147.992 73.5172 148.912 73.5172 149.968C73.5172 151.344 73.1732 152.4 72.4852 153.136C71.8132 153.872 70.8292 154.24 69.5332 154.24Z" fill="#4C4C6D"/>
<defs>
<clipPath id="clip0_2_149">
<rect width="120" height="120" fill="white" transform="translate(0.5)"/>
</clipPath>
</defs>
</svg>
