<svg width="121" height="158" viewBox="0 0 121 158" fill="none" xmlns="http://www.w3.org/2000/svg">
<g clip-path="url(#clip0_2_154)">
<mask id="mask0_2_154" style="mask-type:luminance" maskUnits="userSpaceOnUse" x="0" y="0" width="121" height="120">
<path d="M0.5 0H120.5V120H0.5V0Z" fill="white"/>
</mask>
<g mask="url(#mask0_2_154)">
<path d="M25.9 0H31.31V5.345H36.26V0H41.67V16.18H36.26V10.765H31.31V16.18H25.905L25.9 0ZM48.78 5.365H44.02V0H58.955V5.365H54.19V16.18H48.78V5.365ZM61.325 0H66.965L70.435 5.685L73.9 0H79.54V16.18H74.155V8.16L70.435 13.915H70.34L66.615 8.165V16.18H61.325V0ZM82.23 0H87.645V10.835H95.245V16.185H82.23V0Z" fill="#4C4C6D"/>
<path fill-rule="evenodd" clip-rule="evenodd" d="M25.73 110.36L15.5 23.585H105.5L95.265 110.35L60.45 120L25.73 110.36ZM46.415 62.86L45.445 51.96H86.17L87.12 41.32H33.82L36.69 73.505H73.575L72.34 87.305L60.47 90.515H60.46L48.61 87.315L47.85 78.83H37.16L38.65 95.54L60.45 101.59L82.285 95.54L84.945 65.72L85.205 62.865H46.415V62.86Z" fill="#4C4C6D"/>
</g>
</g>
<path d="M41.4918 137.2H44.1318V144.04H46.9638V137.2H49.6038V154H46.9638V146.44H44.1318V154H41.4918V137.2ZM53.6339 139.6H50.8739V137.2H59.0339V139.6H56.2739V154H53.6339V139.6ZM60.3121 137.2H64.0801L65.7601 149.224H65.8081L67.4881 137.2H71.2561V154H68.7601V141.28H68.7121L66.7921 154H64.5841L62.6641 141.28H62.6161V154H60.3121V137.2ZM73.2262 137.2H75.8662V151.6H80.2102V154H73.2262V137.2Z" fill="#4C4C6D"/>
<defs>
<clipPath id="clip0_2_154">
<rect width="120" height="120" fill="white" transform="translate(0.5)"/>
</clipPath>
</defs>
</svg>
