<svg width="121" height="193" viewBox="0 0 121 193" fill="none" xmlns="http://www.w3.org/2000/svg">
<path fill-rule="evenodd" clip-rule="evenodd" d="M43.835 47.085C42.139 47.085 40.4595 47.4191 38.8926 48.0681C37.3257 48.7171 35.902 49.6684 34.7027 50.8677C33.5034 52.067 32.5521 53.4907 31.9031 55.0576C31.254 56.6246 30.92 58.304 30.92 60C30.92 61.696 31.254 63.3754 31.9031 64.9424C32.5521 66.5093 33.5034 67.933 34.7027 69.1323C35.902 70.3316 37.3257 71.2829 38.8926 71.9319C40.4595 72.5809 42.139 72.915 43.835 72.915H56.75V60.26C56.748 60.0867 56.748 59.9133 56.75 59.74V47.085H43.835ZM56.75 39.585H43.835C40.409 39.585 37.1234 38.2241 34.7009 35.8016C32.2784 33.3791 30.9175 30.0934 30.9175 26.6675C30.9175 23.2416 32.2784 19.9559 34.7009 17.5334C37.1234 15.1109 40.409 13.75 43.835 13.75H56.75V39.585ZM64.25 13.75V39.585H77.165C80.5469 39.5185 83.7679 38.1283 86.1361 35.713C88.5043 33.2978 89.8308 30.0501 89.8308 26.6675C89.8308 23.2849 88.5043 20.0372 86.1361 17.622C83.7679 15.2067 80.5469 13.8165 77.165 13.75H64.25ZM77.165 47.08C73.7749 47.0796 70.5206 48.4121 68.1044 50.79C65.6882 53.1678 64.3038 56.4004 64.25 59.79V60.205C64.2914 62.75 65.0839 65.226 66.5279 67.3221C67.9719 69.4181 70.0031 71.0407 72.3664 71.9861C74.7297 72.9315 77.3196 73.1575 79.8108 72.6357C82.3021 72.1139 84.5837 70.8676 86.3689 69.0533C88.1541 67.2391 89.3635 64.9377 89.845 62.4384C90.3266 59.939 90.0589 57.3531 89.0755 55.0054C88.0921 52.6577 86.4369 50.6529 84.3179 49.2428C82.1988 47.8328 79.7103 47.0803 77.165 47.08ZM43.835 80.415C41.2794 80.414 38.781 81.1709 36.6556 82.59C34.5303 84.009 32.8735 86.0265 31.8949 88.3873C30.9162 90.748 30.6597 93.3459 31.1576 95.8525C31.6556 98.3591 32.8857 100.662 34.6924 102.469C36.4991 104.276 38.8012 105.507 41.3076 106.006C43.8139 106.505 46.412 106.25 48.7731 105.272C51.1342 104.294 53.1523 102.638 54.5722 100.513C55.9921 98.3887 56.75 95.8905 56.75 93.335V80.415H43.835Z" fill="#4C4C6D"/>
<path d="M39.0895 137.2H46.0735V139.6H41.7295V144.28H45.1375V146.68H41.7295V154H39.0895V137.2ZM47.3395 137.2H49.9795V154H47.3395V137.2ZM55.7007 154.24C54.4207 154.24 53.4447 153.88 52.7727 153.16C52.1007 152.424 51.7647 151.376 51.7647 150.016V141.184C51.7647 139.824 52.1007 138.784 52.7727 138.064C53.4447 137.328 54.4207 136.96 55.7007 136.96C56.9807 136.96 57.9567 137.328 58.6287 138.064C59.3007 138.784 59.6367 139.824 59.6367 141.184V142.624H57.1407V141.016C57.1407 139.912 56.6847 139.36 55.7727 139.36C54.8607 139.36 54.4047 139.912 54.4047 141.016V150.208C54.4047 151.296 54.8607 151.84 55.7727 151.84C56.6847 151.84 57.1407 151.296 57.1407 150.208V146.92H55.8207V144.52H59.6367V150.016C59.6367 151.376 59.3007 152.424 58.6287 153.16C57.9567 153.88 56.9807 154.24 55.7007 154.24ZM61.3317 137.2H65.0997L66.7797 149.224H66.8277L68.5077 137.2H72.2757V154H69.7797V141.28H69.7317L67.8117 154H65.6037L63.6837 141.28H63.6357V154H61.3317V137.2ZM76.2857 137.2H79.8617L82.5977 154H79.9577L79.4777 150.664V150.712H76.4777L75.9977 154H73.5497L76.2857 137.2ZM79.1657 148.432L77.9897 140.128H77.9417L76.7897 148.432H79.1657Z" fill="#4C4C6D"/>
</svg>
