<svg width="121" height="184" viewBox="0 0 121 184" fill="none" xmlns="http://www.w3.org/2000/svg">
<path d="M30.5 15C26.5218 15 22.7064 16.5804 19.8934 19.3934C17.0804 22.2064 15.5 26.0218 15.5 30V90C15.5 93.9782 17.0804 97.7936 19.8934 100.607C22.7064 103.42 26.5218 105 30.5 105H90.5C94.4782 105 98.2936 103.42 101.107 100.607C103.92 97.7936 105.5 93.9782 105.5 90V30C105.5 26.0218 103.92 22.2064 101.107 19.3934C98.2936 16.5804 94.4782 15 90.5 15H30.5ZM67.17 80.275C70.77 83.175 74.36 84.6 77.95 84.565C80.15 84.565 81.84 84.165 83.01 83.355C83.5563 83.0004 84.0008 82.5096 84.2998 81.9309C84.5987 81.3523 84.7419 80.7058 84.715 80.055C84.7223 79.3452 84.5738 78.6425 84.2801 77.9963C83.9864 77.3501 83.5545 76.7762 83.015 76.315C81.84 75.29 79.62 74.265 76.355 73.235C72.435 72.1 69.405 70.635 67.28 68.835C65.19 67.035 64.13 64.525 64.09 61.3C64.09 58.255 65.41 55.71 68.05 53.655C70.62 51.605 73.9 50.575 77.9 50.575C83.47 50.575 87.945 51.93 91.315 54.645L87.465 60.64C86.0789 59.5618 84.4885 58.776 82.79 58.33C81.2636 57.8195 79.6691 57.5414 78.06 57.505C76.16 57.505 74.635 57.855 73.495 58.55C72.36 59.25 71.795 60.165 71.795 61.3C71.795 62.55 72.49 63.61 73.88 64.49C75.28 65.335 77.66 66.27 81.03 67.295C85.1 68.505 88 70.12 89.72 72.135C91.445 74.15 92.305 76.72 92.305 79.835C92.305 83.025 91.08 85.775 88.62 88.085C86.2 90.36 82.68 91.55 78.06 91.66C72.01 91.66 66.95 89.845 62.88 86.215L67.17 80.275ZM39.52 83.465C40.695 84.2 42.105 84.565 43.755 84.565C45.48 84.565 46.905 84.07 48.045 83.08C49.18 82.055 49.75 80.275 49.75 77.745V51.235H57.175V79.175C57.065 83.5 55.82 86.62 53.435 88.525C52.1337 89.6316 50.6166 90.4556 48.98 90.945C47.4641 91.4069 45.8896 91.6477 44.305 91.66C41.555 91.66 39.115 91.185 36.99 90.23C34.715 89.205 32.81 87.39 31.27 84.785L36.44 80.55C37.39 81.835 38.42 82.805 39.52 83.465Z" fill="#4C4C6D"/>
<path d="M45.3971 154.096C44.9171 154.096 44.5091 154.064 44.1731 154V151.6C44.4291 151.664 44.7171 151.696 45.0371 151.696C45.5651 151.696 45.9571 151.568 46.2131 151.312C46.4691 151.04 46.5971 150.632 46.5971 150.088V137.2H49.2371V150.016C49.2371 151.392 48.9171 152.416 48.2771 153.088C47.6531 153.76 46.6931 154.096 45.3971 154.096ZM53.1646 137.2H56.7406L59.4766 154H56.8366L56.3566 150.664V150.712H53.3566L52.8766 154H50.4286L53.1646 137.2ZM56.0446 148.432L54.8686 140.128H54.8206L53.6686 148.432H56.0446ZM59.3818 137.2H62.0458L63.7738 150.232H63.8218L65.5498 137.2H67.9738L65.4297 154H61.9258L59.3818 137.2ZM70.6021 137.2H74.1781L76.9141 154H74.2741L73.7941 150.664V150.712H70.7941L70.3141 154H67.8661L70.6021 137.2ZM73.4821 148.432L72.3061 140.128H72.2581L71.1061 148.432H73.4821ZM39.6855 183.24C38.4055 183.24 37.4375 182.88 36.7815 182.16C36.1255 181.424 35.7975 180.376 35.7975 179.016V178.056H38.2935V179.208C38.2935 180.296 38.7495 180.84 39.6615 180.84C40.1095 180.84 40.4455 180.712 40.6695 180.456C40.9095 180.184 41.0295 179.752 41.0295 179.16C41.0295 178.456 40.8695 177.84 40.5495 177.312C40.2295 176.768 39.6375 176.12 38.7735 175.368C37.6855 174.408 36.9255 173.544 36.4935 172.776C36.0615 171.992 35.8455 171.112 35.8455 170.136C35.8455 168.808 36.1815 167.784 36.8535 167.064C37.5255 166.328 38.5015 165.96 39.7815 165.96C41.0455 165.96 41.9975 166.328 42.6375 167.064C43.2935 167.784 43.6215 168.824 43.6215 170.184V170.88H41.1255V170.016C41.1255 169.44 41.0135 169.024 40.7895 168.768C40.5655 168.496 40.2375 168.36 39.8055 168.36C38.9255 168.36 38.4855 168.896 38.4855 169.968C38.4855 170.576 38.6455 171.144 38.9655 171.672C39.3015 172.2 39.9015 172.84 40.7655 173.592C41.8695 174.552 42.6295 175.424 43.0455 176.208C43.4615 176.992 43.6695 177.912 43.6695 178.968C43.6695 180.344 43.3255 181.4 42.6375 182.136C41.9655 182.872 40.9815 183.24 39.6855 183.24ZM48.9032 183.24C47.6392 183.24 46.6712 182.88 45.9992 182.16C45.3432 181.44 45.0152 180.424 45.0152 179.112V170.088C45.0152 168.776 45.3432 167.76 45.9992 167.04C46.6712 166.32 47.6392 165.96 48.9032 165.96C50.1672 165.96 51.1272 166.32 51.7832 167.04C52.4552 167.76 52.7912 168.776 52.7912 170.088V171.864H50.2952V169.92C50.2952 168.88 49.8552 168.36 48.9752 168.36C48.0952 168.36 47.6552 168.88 47.6552 169.92V179.304C47.6552 180.328 48.0952 180.84 48.9752 180.84C49.8552 180.84 50.2952 180.328 50.2952 179.304V176.736H52.7912V179.112C52.7912 180.424 52.4552 181.44 51.7832 182.16C51.1272 182.88 50.1672 183.24 48.9032 183.24ZM54.3707 166.2H58.2827C59.6427 166.2 60.6347 166.52 61.2587 167.16C61.8827 167.784 62.1947 168.752 62.1947 170.064V171.096C62.1947 172.84 61.6187 173.944 60.4667 174.408V174.456C61.1067 174.648 61.5547 175.04 61.8107 175.632C62.0827 176.224 62.2187 177.016 62.2187 178.008V180.96C62.2187 181.44 62.2347 181.832 62.2667 182.136C62.2987 182.424 62.3787 182.712 62.5067 183H59.8187C59.7227 182.728 59.6587 182.472 59.6267 182.232C59.5947 181.992 59.5787 181.56 59.5787 180.936V177.864C59.5787 177.096 59.4507 176.56 59.1947 176.256C58.9547 175.952 58.5307 175.8 57.9227 175.8H57.0107V183H54.3707V166.2ZM57.9707 173.4C58.4987 173.4 58.8907 173.264 59.1467 172.992C59.4187 172.72 59.5547 172.264 59.5547 171.624V170.328C59.5547 169.72 59.4427 169.28 59.2187 169.008C59.0107 168.736 58.6747 168.6 58.2107 168.6H57.0107V173.4H57.9707ZM64.0504 166.2H66.6904V183H64.0504V166.2ZM68.6676 166.2H72.5556C73.8676 166.2 74.8516 166.552 75.5076 167.256C76.1636 167.96 76.4916 168.992 76.4916 170.352V172.008C76.4916 173.368 76.1636 174.4 75.5076 175.104C74.8516 175.808 73.8676 176.16 72.5556 176.16H71.3076V183H68.6676V166.2ZM72.5556 173.76C72.9876 173.76 73.3076 173.64 73.5156 173.4C73.7396 173.16 73.8516 172.752 73.8516 172.176V170.184C73.8516 169.608 73.7396 169.2 73.5156 168.96C73.3076 168.72 72.9876 168.6 72.5556 168.6H71.3076V173.76H72.5556ZM80.0363 168.6H77.2763V166.2H85.4363V168.6H82.6763V183H80.0363V168.6Z" fill="#4C4C6D"/>
</svg>
