<svg width="428" height="926" viewBox="0 0 428 926" fill="none" xmlns="http://www.w3.org/2000/svg">
<rect width="428" height="926" fill="#9BABB8"/>
<circle cx="45" cy="53" r="30" fill="#EEE3CB"/>
<path fill-rule="evenodd" clip-rule="evenodd" d="M27.0229 55.3904C25.7276 54.6411 25 53.6255 25 52.5665C25 51.5076 25.7276 50.492 27.0229 49.7427L53.1051 34.6698C54.4028 33.9206 56.1625 33.4998 57.9972 33.5C58.9056 33.5001 59.8051 33.6036 60.6444 33.8046C61.4836 34.0055 62.2461 34.3 62.8883 34.6712C63.5305 35.0423 64.0399 35.483 64.3873 35.9679C64.7348 36.4528 64.9135 36.9725 64.9133 37.4973C64.9131 38.0221 64.7339 38.5417 64.3861 39.0265C64.0382 39.5113 63.5285 39.9518 62.886 40.3228L41.6919 52.5665L62.886 64.8103C63.5469 65.1787 64.0742 65.6195 64.4371 66.1069C64.8001 66.5944 64.9913 67.1187 64.9997 67.6492C65.0081 68.1798 64.8335 68.7061 64.4861 69.1972C64.1387 69.6884 63.6255 70.1347 62.9763 70.5101C62.3272 70.8855 61.5551 71.1824 60.7052 71.3835C59.8553 71.5847 58.9445 71.686 58.026 71.6817C57.1076 71.6773 56.1998 71.5673 55.3558 71.3581C54.5117 71.149 53.7482 70.8447 53.1098 70.4633L27.0137 55.3904H27.0229Z" fill="#9BABB8"/>
<path d="M60.872 270H60.56V253.2H61.376L71.36 268.728V253.2H71.672V270H69.92L60.872 256.08V270ZM84.0986 270C83.0106 270 82.2666 269.792 81.8666 269.376C81.4986 269.024 81.3146 268.72 81.3146 268.464V267.96C80.5306 269.384 79.2746 270.096 77.5466 270.096C75.5306 270.096 74.3866 269.184 74.1146 267.36C74.0826 267.168 74.0666 266.976 74.0666 266.784C74.0666 266.576 74.0986 266.352 74.1626 266.112C74.2266 265.872 74.4106 265.608 74.7146 265.32C75.3226 264.744 76.6586 264.392 78.7226 264.264C79.2346 264.216 79.7066 264.192 80.1386 264.192C80.5706 264.192 80.9626 264.208 81.3146 264.24V260.256C81.2826 260.24 81.2826 260.168 81.3146 260.04C81.3466 259.896 81.3146 259.72 81.2186 259.512C81.1386 259.288 81.0266 259.072 80.8826 258.864C80.7386 258.656 80.4826 258.48 80.1146 258.336C79.7466 258.176 79.2666 258.096 78.6746 258.096C78.0826 258.096 77.3866 258.208 76.5866 258.432C75.8026 258.64 75.2266 258.848 74.8586 259.056L74.7626 258.888C76.1866 258.232 77.6346 257.904 79.1066 257.904C80.7546 257.904 81.8426 258.2 82.3706 258.792C82.7866 259.256 82.9946 259.744 82.9946 260.256V268.296C82.9946 268.76 83.0826 269.12 83.2586 269.376C83.4506 269.616 83.6426 269.744 83.8346 269.76L84.0986 269.808H84.8426V270H84.0986ZM77.9306 269.904C78.7786 269.904 79.5386 269.616 80.2106 269.04C80.8986 268.448 81.2666 267.88 81.3146 267.336V264.432C80.8826 264.4 80.4426 264.384 79.9946 264.384C79.5626 264.384 79.1306 264.408 78.6986 264.456C77.4826 264.6 76.6906 264.872 76.3226 265.272C75.9546 265.672 75.7706 266.224 75.7706 266.928C75.7706 267.056 75.7786 267.2 75.7946 267.36C75.9386 269.056 76.6506 269.904 77.9306 269.904ZM100.635 260.76C100.635 259.784 100.507 259.096 100.251 258.696C99.9951 258.296 99.5071 258.096 98.7871 258.096C97.8271 258.096 96.9711 258.496 96.2191 259.296C95.4831 260.096 95.1151 260.816 95.1151 261.456V270H93.4351V260.76C93.4351 259.784 93.3071 259.096 93.0511 258.696C92.7951 258.296 92.2511 258.096 91.4191 258.096C90.5871 258.096 89.7951 258.48 89.0431 259.248C88.3071 260.016 87.9071 260.728 87.8431 261.384V270H86.1631V258H87.8431V260.712C88.0991 260.024 88.5711 259.384 89.2591 258.792C89.9471 258.2 90.7151 257.904 91.5631 257.904C92.4111 257.904 93.0831 257.984 93.5791 258.144C94.0911 258.288 94.4511 258.52 94.6591 258.84C94.8671 259.16 94.9951 259.44 95.0431 259.68C95.0911 259.92 95.1151 260.256 95.1151 260.688C95.3711 260 95.8351 259.368 96.5071 258.792C97.1791 258.2 97.8991 257.904 98.6671 257.904C99.4351 257.904 100.051 257.968 100.515 258.096C100.979 258.224 101.323 258.368 101.547 258.528C101.787 258.688 101.963 258.92 102.075 259.224C102.203 259.528 102.275 259.776 102.291 259.968C102.307 260.16 102.315 260.432 102.315 260.784V268.296C102.315 268.76 102.403 269.12 102.579 269.376C102.771 269.616 102.963 269.744 103.155 269.76L103.419 269.808H104.163V270H102.699C102.043 270 101.539 269.856 101.187 269.568C100.851 269.28 100.675 268.992 100.659 268.704L100.635 268.296V260.76ZM106.522 264.144C106.522 266.128 106.866 267.584 107.554 268.512C108.258 269.44 109.178 269.904 110.314 269.904C111.914 269.904 113.338 269.664 114.586 269.184L114.658 269.352C113.378 269.848 111.93 270.096 110.314 270.096C108.714 270.096 107.41 269.616 106.402 268.656C105.394 267.696 104.89 266.216 104.89 264.216C104.89 262.216 105.418 260.664 106.474 259.56C107.53 258.456 108.874 257.904 110.506 257.904C111.818 257.904 112.922 258.296 113.818 259.08C114.714 259.864 115.162 261.024 115.162 262.56C115.162 262.64 115.162 262.72 115.162 262.8H106.594C106.546 263.232 106.522 263.68 106.522 264.144ZM113.53 262.608C113.514 261.072 113.218 259.936 112.642 259.2C112.066 258.464 111.322 258.096 110.41 258.096C109.498 258.096 108.682 258.496 107.962 259.296C107.258 260.096 106.81 261.2 106.618 262.608H113.53Z" fill="black"/>
<rect x="57.5" y="308.5" width="301" height="45" rx="11.5" fill="#EEE3CB"/>
<rect x="57.5" y="308.5" width="301" height="45" rx="11.5" stroke="#967E76" stroke-width="3"/>
<path d="M60.2 393H61.88V395.976C62.152 395.24 62.656 394.544 63.392 393.888C64.128 393.232 64.96 392.904 65.888 392.904C69.136 392.904 70.76 394.808 70.76 398.616C70.76 402.936 68.664 405.096 64.472 405.096C63.72 405.096 62.856 404.92 61.88 404.568V411H60.2V393ZM65.864 393.096C64.872 393.096 63.976 393.528 63.176 394.392C62.376 395.24 61.944 396.008 61.88 396.696V404.352C62.856 404.72 63.712 404.904 64.448 404.904C67.536 404.904 69.08 402.8 69.08 398.592C69.08 394.928 68.008 393.096 65.864 393.096ZM82.5986 405C81.5106 405 80.7666 404.792 80.3666 404.376C79.9986 404.024 79.8146 403.72 79.8146 403.464V402.96C79.0306 404.384 77.7746 405.096 76.0466 405.096C74.0306 405.096 72.8866 404.184 72.6146 402.36C72.5826 402.168 72.5666 401.976 72.5666 401.784C72.5666 401.576 72.5986 401.352 72.6626 401.112C72.7266 400.872 72.9106 400.608 73.2146 400.32C73.8226 399.744 75.1586 399.392 77.2226 399.264C77.7346 399.216 78.2066 399.192 78.6386 399.192C79.0706 399.192 79.4626 399.208 79.8146 399.24V395.256C79.7826 395.24 79.7826 395.168 79.8146 395.04C79.8466 394.896 79.8146 394.72 79.7186 394.512C79.6386 394.288 79.5266 394.072 79.3826 393.864C79.2386 393.656 78.9826 393.48 78.6146 393.336C78.2466 393.176 77.7666 393.096 77.1746 393.096C76.5826 393.096 75.8866 393.208 75.0866 393.432C74.3026 393.64 73.7266 393.848 73.3586 394.056L73.2626 393.888C74.6866 393.232 76.1346 392.904 77.6066 392.904C79.2546 392.904 80.3426 393.2 80.8706 393.792C81.2866 394.256 81.4946 394.744 81.4946 395.256V403.296C81.4946 403.76 81.5826 404.12 81.7586 404.376C81.9506 404.616 82.1426 404.744 82.3346 404.76L82.5986 404.808H83.3426V405H82.5986ZM76.4306 404.904C77.2786 404.904 78.0386 404.616 78.7106 404.04C79.3986 403.448 79.7666 402.88 79.8146 402.336V399.432C79.3826 399.4 78.9426 399.384 78.4946 399.384C78.0626 399.384 77.6306 399.408 77.1986 399.456C75.9826 399.6 75.1906 399.872 74.8226 400.272C74.4546 400.672 74.2706 401.224 74.2706 401.928C74.2706 402.056 74.2786 402.2 74.2946 402.36C74.4386 404.056 75.1506 404.904 76.4306 404.904ZM91.6711 393.84C91.4151 393.632 90.9991 393.456 90.4231 393.312C89.8631 393.168 89.4391 393.096 89.1511 393.096C88.8631 393.096 88.6951 393.096 88.6471 393.096C87.7831 393.112 87.1591 393.336 86.7751 393.768C86.3911 394.184 86.1991 394.656 86.1991 395.184C86.1991 395.712 86.3671 396.16 86.7031 396.528C87.0391 396.88 87.4551 397.16 87.9511 397.368C88.4631 397.56 89.0071 397.784 89.5831 398.04C90.1751 398.296 90.7191 398.56 91.2151 398.832C91.7271 399.088 92.1511 399.472 92.4871 399.984C92.8231 400.48 92.9911 401.104 92.9911 401.856C92.9911 402.608 92.7271 403.248 92.1991 403.776C91.6711 404.304 91.0791 404.656 90.4231 404.832C89.7831 405.008 89.0871 405.096 88.3351 405.096C86.7031 405.096 85.4791 404.736 84.6631 404.016L84.8071 403.872C85.1271 404.176 85.5991 404.424 86.2231 404.616C86.8631 404.808 87.4791 404.904 88.0711 404.904C89.0151 404.904 89.7911 404.648 90.3991 404.136C91.0231 403.608 91.3351 402.96 91.3351 402.192C91.3351 401.408 91.1031 400.784 90.6391 400.32C90.1751 399.84 89.6071 399.472 88.9351 399.216C88.2791 398.944 87.6151 398.68 86.9431 398.424C86.2711 398.152 85.7031 397.784 85.2391 397.32C84.7751 396.84 84.5431 396.288 84.5431 395.664C84.5431 395.04 84.6871 394.536 84.9751 394.152C85.2631 393.752 85.6471 393.472 86.1271 393.312C86.9431 393.04 87.7591 392.904 88.5751 392.904C89.9511 392.904 91.0231 393.16 91.7911 393.672L91.6711 393.84ZM101.562 393.84C101.306 393.632 100.89 393.456 100.314 393.312C99.7538 393.168 99.3298 393.096 99.0418 393.096C98.7538 393.096 98.5858 393.096 98.5378 393.096C97.6738 393.112 97.0498 393.336 96.6658 393.768C96.2818 394.184 96.0898 394.656 96.0898 395.184C96.0898 395.712 96.2578 396.16 96.5938 396.528C96.9298 396.88 97.3458 397.16 97.8418 397.368C98.3538 397.56 98.8978 397.784 99.4738 398.04C100.066 398.296 100.61 398.56 101.106 398.832C101.618 399.088 102.042 399.472 102.378 399.984C102.714 400.48 102.882 401.104 102.882 401.856C102.882 402.608 102.618 403.248 102.09 403.776C101.562 404.304 100.97 404.656 100.314 404.832C99.6738 405.008 98.9778 405.096 98.2258 405.096C96.5938 405.096 95.3698 404.736 94.5538 404.016L94.6978 403.872C95.0178 404.176 95.4898 404.424 96.1138 404.616C96.7538 404.808 97.3698 404.904 97.9618 404.904C98.9058 404.904 99.6818 404.648 100.29 404.136C100.914 403.608 101.226 402.96 101.226 402.192C101.226 401.408 100.994 400.784 100.53 400.32C100.066 399.84 99.4978 399.472 98.8258 399.216C98.1698 398.944 97.5058 398.68 96.8338 398.424C96.1618 398.152 95.5938 397.784 95.1298 397.32C94.6658 396.84 94.4338 396.288 94.4338 395.664C94.4338 395.04 94.5778 394.536 94.8658 394.152C95.1538 393.752 95.5378 393.472 96.0178 393.312C96.8338 393.04 97.6498 392.904 98.4658 392.904C99.8418 392.904 100.914 393.16 101.682 393.672L101.562 393.84ZM120.746 393.144L120.89 393C120.954 393.032 121.034 393.128 121.13 393.288C121.242 393.448 121.306 393.592 121.322 393.72C121.354 393.848 121.37 393.968 121.37 394.08C121.37 394.512 121.274 394.952 121.082 395.4L116.714 405H116.474L113.018 395.712L108.794 405H108.554L104.09 393H105.77L109.442 402.936L112.898 395.424L112.01 393H113.69L117.362 402.936L120.842 395.4C121.034 395.064 121.13 394.664 121.13 394.2C121.13 393.736 121.002 393.384 120.746 393.144ZM128.39 405.096C126.71 405.096 125.342 404.616 124.286 403.656C123.23 402.696 122.702 401.216 122.702 399.216C122.702 397.216 123.246 395.664 124.334 394.56C125.438 393.456 126.83 392.904 128.51 392.904C130.206 392.904 131.582 393.384 132.638 394.344C133.694 395.304 134.222 396.784 134.222 398.784C134.222 400.784 133.67 402.336 132.566 403.44C131.478 404.544 130.086 405.096 128.39 405.096ZM128.558 393.096C127.342 393.096 126.334 393.64 125.534 394.728C124.734 395.8 124.334 397.304 124.334 399.24C124.334 401.16 124.702 402.584 125.438 403.512C126.174 404.44 127.15 404.904 128.366 404.904C129.582 404.904 130.59 404.368 131.39 403.296C132.19 402.208 132.59 400.704 132.59 398.784C132.59 396.848 132.222 395.416 131.486 394.488C130.75 393.56 129.774 393.096 128.558 393.096ZM140.247 394.032V393.528C139.527 393.816 138.871 394.4 138.279 395.28C137.687 396.144 137.375 396.96 137.343 397.728V405H135.663V393H137.343V396.816C137.599 395.888 138.087 395.016 138.807 394.2C139.527 393.368 140.343 392.936 141.255 392.904H141.351C141.671 392.904 141.935 393.016 142.143 393.24C142.367 393.448 142.479 393.712 142.479 394.032C142.479 394.352 142.367 394.616 142.143 394.824C141.935 395.032 141.671 395.136 141.351 395.136C141.031 395.136 140.767 395.032 140.559 394.824C140.351 394.616 140.247 394.352 140.247 394.032ZM143.562 399.432C143.562 397.352 144.066 395.744 145.074 394.608C146.082 393.472 147.594 392.904 149.61 392.904C150.554 392.904 151.506 393.144 152.466 393.624V387.024H154.146V403.296C154.146 403.76 154.234 404.12 154.41 404.376C154.602 404.616 154.794 404.744 154.986 404.76L155.25 404.808H155.994V405H154.53C153.874 405 153.37 404.856 153.018 404.568C152.682 404.28 152.506 403.992 152.49 403.704L152.466 403.296V402.912C152.162 403.472 151.658 403.968 150.954 404.4C150.25 404.832 149.418 405.048 148.458 405.048C145.194 404.968 143.562 403.096 143.562 399.432ZM148.482 404.856C149.554 404.856 150.474 404.568 151.242 403.992C152.01 403.416 152.418 402.848 152.466 402.288V393.84C151.33 393.344 150.354 393.096 149.538 393.096C148.114 393.096 147.042 393.656 146.322 394.776C145.602 395.88 145.242 397.432 145.242 399.432C145.242 403.048 146.322 404.856 148.482 404.856Z" fill="black"/>
<rect x="57.5" y="439.5" width="301" height="45" rx="11.5" fill="#EEE3CB"/>
<rect x="57.5" y="439.5" width="301" height="45" rx="11.5" stroke="#967E76" stroke-width="3"/>
<path d="M74.432 524.76C74.432 523.784 74.304 523.096 74.048 522.696C73.792 522.296 73.304 522.096 72.584 522.096C71.624 522.096 70.768 522.496 70.016 523.296C69.28 524.096 68.912 524.816 68.912 525.456V534H67.232V524.76C67.232 523.784 67.104 523.096 66.848 522.696C66.592 522.296 66.048 522.096 65.216 522.096C64.384 522.096 63.592 522.48 62.84 523.248C62.104 524.016 61.704 524.728 61.64 525.384V534H59.96V522H61.64V524.712C61.896 524.024 62.368 523.384 63.056 522.792C63.744 522.2 64.512 521.904 65.36 521.904C66.208 521.904 66.88 521.984 67.376 522.144C67.888 522.288 68.248 522.52 68.456 522.84C68.664 523.16 68.792 523.44 68.84 523.68C68.888 523.92 68.912 524.256 68.912 524.688C69.168 524 69.632 523.368 70.304 522.792C70.976 522.2 71.696 521.904 72.464 521.904C73.232 521.904 73.848 521.968 74.312 522.096C74.776 522.224 75.12 522.368 75.344 522.528C75.584 522.688 75.76 522.92 75.872 523.224C76 523.528 76.072 523.776 76.088 523.968C76.104 524.16 76.112 524.432 76.112 524.784V532.296C76.112 532.76 76.2 533.12 76.376 533.376C76.568 533.616 76.76 533.744 76.952 533.76L77.216 533.808H77.96V534H76.496C75.84 534 75.336 533.856 74.984 533.568C74.648 533.28 74.472 532.992 74.456 532.704L74.432 532.296V524.76ZM88.5986 534C87.5106 534 86.7666 533.792 86.3666 533.376C85.9986 533.024 85.8146 532.72 85.8146 532.464V531.96C85.0306 533.384 83.7746 534.096 82.0466 534.096C80.0306 534.096 78.8866 533.184 78.6146 531.36C78.5826 531.168 78.5666 530.976 78.5666 530.784C78.5666 530.576 78.5986 530.352 78.6626 530.112C78.7266 529.872 78.9106 529.608 79.2146 529.32C79.8226 528.744 81.1586 528.392 83.2226 528.264C83.7346 528.216 84.2066 528.192 84.6386 528.192C85.0706 528.192 85.4626 528.208 85.8146 528.24V524.256C85.7826 524.24 85.7826 524.168 85.8146 524.04C85.8466 523.896 85.8146 523.72 85.7186 523.512C85.6386 523.288 85.5266 523.072 85.3826 522.864C85.2386 522.656 84.9826 522.48 84.6146 522.336C84.2466 522.176 83.7666 522.096 83.1746 522.096C82.5826 522.096 81.8866 522.208 81.0866 522.432C80.3026 522.64 79.7266 522.848 79.3586 523.056L79.2626 522.888C80.6866 522.232 82.1346 521.904 83.6066 521.904C85.2546 521.904 86.3426 522.2 86.8706 522.792C87.2866 523.256 87.4946 523.744 87.4946 524.256V532.296C87.4946 532.76 87.5826 533.12 87.7586 533.376C87.9506 533.616 88.1426 533.744 88.3346 533.76L88.5986 533.808H89.3426V534H88.5986ZM82.4306 533.904C83.2786 533.904 84.0386 533.616 84.7106 533.04C85.3986 532.448 85.7666 531.88 85.8146 531.336V528.432C85.3826 528.4 84.9426 528.384 84.4946 528.384C84.0626 528.384 83.6306 528.408 83.1986 528.456C81.9826 528.6 81.1906 528.872 80.8226 529.272C80.4546 529.672 80.2706 530.224 80.2706 530.928C80.2706 531.056 80.2786 531.2 80.2946 531.36C80.4386 533.056 81.1506 533.904 82.4306 533.904ZM93.1111 534C92.4551 534 91.9511 533.856 91.5991 533.568C91.2631 533.28 91.0871 532.992 91.0711 532.704L91.0471 532.296V522H92.7271V532.296C92.7271 532.76 92.8151 533.12 92.9911 533.376C93.1831 533.616 93.3671 533.744 93.5431 533.76L93.8311 533.808H94.5751V534H93.1111ZM91.1911 519.312C90.9991 519.12 90.9031 518.88 90.9031 518.592C90.9031 518.304 90.9991 518.064 91.1911 517.872C91.3831 517.664 91.6231 517.56 91.9111 517.56C92.1991 517.56 92.4391 517.664 92.6311 517.872C92.8391 518.064 92.9431 518.304 92.9431 518.592C92.9431 518.88 92.8391 519.12 92.6311 519.312C92.4391 519.504 92.1991 519.6 91.9111 519.6C91.6231 519.6 91.3831 519.504 91.1911 519.312ZM99.5471 534C98.1391 534 97.2511 533.632 96.8831 532.896C96.8031 532.736 96.7631 532.592 96.7631 532.464V516.024H98.4431V532.296C98.4431 532.76 98.5311 533.12 98.7071 533.376C98.8991 533.616 99.0911 533.744 99.2831 533.76L99.5471 533.808H100.291V534H99.5471Z" fill="black"/>
<rect x="57.5" y="567.5" width="301" height="45" rx="11.5" fill="#EEE3CB"/>
<rect x="57.5" y="567.5" width="301" height="45" rx="11.5" stroke="#967E76" stroke-width="3"/>
<rect x="34.5" y="729.5" width="331" height="62" rx="11.5" fill="#EEE3CB"/>
<rect x="34.5" y="729.5" width="331" height="62" rx="11.5" stroke="#967E76" stroke-width="3"/>
<path d="M47.26 762.648C47.26 759.528 48.016 757.116 49.528 755.412C51.04 753.708 53.308 752.856 56.332 752.856C58.564 752.856 60.832 753.252 63.136 754.044V771.432C63.112 777.144 60.616 780 55.648 780C52.912 780 50.572 779.112 48.628 777.336L48.88 777.12C50.944 778.848 53.2 779.712 55.648 779.712C58.96 779.712 60.616 776.952 60.616 771.432V767.868C60.16 768.708 59.404 769.452 58.348 770.1C57.292 770.748 56.044 771.072 54.604 771.072C49.708 770.952 47.26 768.144 47.26 762.648ZM54.64 770.784C56.248 770.784 57.628 770.352 58.78 769.488C59.932 768.624 60.544 767.772 60.616 766.932V754.224C58.888 753.504 57.424 753.144 56.224 753.144C54.088 753.144 52.48 753.984 51.4 755.664C50.32 757.32 49.78 759.648 49.78 762.648C49.78 768.072 51.4 770.784 54.64 770.784ZM68.2747 762.216C68.2747 765.192 68.7907 767.376 69.8227 768.768C70.8787 770.16 72.2587 770.856 73.9627 770.856C76.3627 770.856 78.4987 770.496 80.3707 769.776L80.4787 770.028C78.5587 770.772 76.3867 771.144 73.9627 771.144C71.5627 771.144 69.6067 770.424 68.0947 768.984C66.5827 767.544 65.8267 765.324 65.8267 762.324C65.8267 759.324 66.6187 756.996 68.2027 755.34C69.7867 753.684 71.8027 752.856 74.2507 752.856C76.2187 752.856 77.8747 753.444 79.2187 754.62C80.5627 755.796 81.2347 757.536 81.2347 759.84C81.2347 759.96 81.2347 760.08 81.2347 760.2H68.3827C68.3107 760.848 68.2747 761.52 68.2747 762.216ZM78.7867 759.912C78.7627 757.608 78.3187 755.904 77.4547 754.8C76.5907 753.696 75.4747 753.144 74.1067 753.144C72.7387 753.144 71.5147 753.744 70.4347 754.944C69.3787 756.144 68.7067 757.8 68.4187 759.912H78.7867ZM97.6417 771C96.6577 771 95.9017 770.784 95.3737 770.352C94.8697 769.92 94.6057 769.488 94.5817 769.056L94.5457 768.444V757.14C94.5457 755.244 94.0537 754.032 93.0697 753.504C92.5657 753.264 91.9417 753.144 91.1977 753.144C89.6617 753.144 88.2817 753.756 87.0577 754.98C85.8337 756.18 85.2217 757.26 85.2217 758.22V771H82.7017V753H85.2217V757.104C85.6297 756.072 86.3857 755.112 87.4897 754.224C88.5937 753.312 89.8057 752.856 91.1257 752.856C92.4457 752.856 93.5137 752.988 94.3297 753.252C95.1697 753.492 95.7817 753.84 96.1657 754.296C96.7657 755.04 97.0657 756 97.0657 757.176V768.444C97.0657 769.14 97.1977 769.68 97.4617 770.064C97.7497 770.424 98.0377 770.616 98.3257 770.64L98.7217 770.712H99.8377V771H97.6417ZM103.747 762.216C103.747 765.192 104.263 767.376 105.295 768.768C106.351 770.16 107.731 770.856 109.435 770.856C111.835 770.856 113.971 770.496 115.843 769.776L115.951 770.028C114.031 770.772 111.859 771.144 109.435 771.144C107.035 771.144 105.079 770.424 103.567 768.984C102.055 767.544 101.299 765.324 101.299 762.324C101.299 759.324 102.091 756.996 103.675 755.34C105.259 753.684 107.275 752.856 109.723 752.856C111.691 752.856 113.347 753.444 114.691 754.62C116.035 755.796 116.707 757.536 116.707 759.84C116.707 759.96 116.707 760.08 116.707 760.2H103.855C103.783 760.848 103.747 761.52 103.747 762.216ZM114.259 759.912C114.235 757.608 113.791 755.904 112.927 754.8C112.063 753.696 110.947 753.144 109.579 753.144C108.211 753.144 106.987 753.744 105.907 754.944C104.851 756.144 104.179 757.8 103.891 759.912H114.259ZM125.05 754.548V753.792C123.97 754.224 122.986 755.1 122.098 756.42C121.21 757.716 120.742 758.94 120.694 760.092V771H118.174V753H120.694V758.724C121.078 757.332 121.81 756.024 122.89 754.8C123.97 753.552 125.194 752.904 126.562 752.856H126.706C127.186 752.856 127.582 753.024 127.894 753.36C128.23 753.672 128.398 754.068 128.398 754.548C128.398 755.028 128.23 755.424 127.894 755.736C127.582 756.048 127.186 756.204 126.706 756.204C126.226 756.204 125.83 756.048 125.518 755.736C125.206 755.424 125.05 755.028 125.05 754.548ZM144.89 771C143.258 771 142.142 770.688 141.542 770.064C140.99 769.536 140.714 769.08 140.714 768.696V767.94C139.538 770.076 137.654 771.144 135.062 771.144C132.038 771.144 130.322 769.776 129.914 767.04C129.866 766.752 129.842 766.464 129.842 766.176C129.842 765.864 129.89 765.528 129.986 765.168C130.082 764.808 130.358 764.412 130.814 763.98C131.726 763.116 133.73 762.588 136.826 762.396C137.594 762.324 138.302 762.288 138.95 762.288C139.598 762.288 140.186 762.312 140.714 762.36V756.384C140.666 756.36 140.666 756.252 140.714 756.06C140.762 755.844 140.714 755.58 140.57 755.268C140.45 754.932 140.282 754.608 140.066 754.296C139.85 753.984 139.466 753.72 138.914 753.504C138.362 753.264 137.642 753.144 136.754 753.144C135.866 753.144 134.822 753.312 133.622 753.648C132.446 753.96 131.582 754.272 131.03 754.584L130.886 754.332C133.022 753.348 135.194 752.856 137.402 752.856C139.874 752.856 141.506 753.3 142.298 754.188C142.922 754.884 143.234 755.616 143.234 756.384V768.444C143.234 769.14 143.366 769.68 143.63 770.064C143.918 770.424 144.206 770.616 144.494 770.64L144.89 770.712H146.006V771H144.89ZM135.638 770.856C136.91 770.856 138.05 770.424 139.058 769.56C140.09 768.672 140.642 767.82 140.714 767.004V762.648C140.066 762.6 139.406 762.576 138.734 762.576C138.086 762.576 137.438 762.612 136.79 762.684C134.966 762.9 133.778 763.308 133.226 763.908C132.674 764.508 132.398 765.336 132.398 766.392C132.398 766.584 132.41 766.8 132.434 767.04C132.65 769.584 133.718 770.856 135.638 770.856ZM148.51 753.288V753H149.266V749.4H151.786V753H157.294V753.288H151.786V766.392C151.786 767.952 151.954 769.08 152.29 769.776C152.65 770.472 153.382 770.82 154.486 770.82C155.614 770.82 156.754 770.592 157.906 770.136L158.014 770.424C156.814 770.88 155.434 771.108 153.874 771.108C152.338 771.108 151.186 770.796 150.418 770.172C149.65 769.524 149.266 768.252 149.266 766.356V753.288H148.51ZM162.072 762.216C162.072 765.192 162.588 767.376 163.62 768.768C164.676 770.16 166.056 770.856 167.76 770.856C170.16 770.856 172.296 770.496 174.168 769.776L174.276 770.028C172.356 770.772 170.184 771.144 167.76 771.144C165.36 771.144 163.404 770.424 161.892 768.984C160.38 767.544 159.624 765.324 159.624 762.324C159.624 759.324 160.416 756.996 162 755.34C163.584 753.684 165.6 752.856 168.048 752.856C170.016 752.856 171.672 753.444 173.016 754.62C174.36 755.796 175.032 757.536 175.032 759.84C175.032 759.96 175.032 760.08 175.032 760.2H162.18C162.108 760.848 162.072 761.52 162.072 762.216ZM172.584 759.912C172.56 757.608 172.116 755.904 171.252 754.8C170.388 753.696 169.272 753.144 167.904 753.144C166.536 753.144 165.312 753.744 164.232 754.944C163.176 756.144 162.504 757.8 162.216 759.912H172.584ZM203.214 771C201.582 771 200.466 770.688 199.866 770.064C199.314 769.536 199.038 769.08 199.038 768.696V767.94C197.862 770.076 195.978 771.144 193.386 771.144C190.362 771.144 188.646 769.776 188.238 767.04C188.19 766.752 188.166 766.464 188.166 766.176C188.166 765.864 188.214 765.528 188.31 765.168C188.406 764.808 188.682 764.412 189.138 763.98C190.05 763.116 192.054 762.588 195.15 762.396C195.918 762.324 196.626 762.288 197.274 762.288C197.922 762.288 198.51 762.312 199.038 762.36V756.384C198.99 756.36 198.99 756.252 199.038 756.06C199.086 755.844 199.038 755.58 198.894 755.268C198.774 754.932 198.606 754.608 198.39 754.296C198.174 753.984 197.79 753.72 197.238 753.504C196.686 753.264 195.966 753.144 195.078 753.144C194.19 753.144 193.146 753.312 191.946 753.648C190.77 753.96 189.906 754.272 189.354 754.584L189.21 754.332C191.346 753.348 193.518 752.856 195.726 752.856C198.198 752.856 199.83 753.3 200.622 754.188C201.246 754.884 201.558 755.616 201.558 756.384V768.444C201.558 769.14 201.69 769.68 201.954 770.064C202.242 770.424 202.53 770.616 202.818 770.64L203.214 770.712H204.33V771H203.214ZM193.962 770.856C195.234 770.856 196.374 770.424 197.382 769.56C198.414 768.672 198.966 767.82 199.038 767.004V762.648C198.39 762.6 197.73 762.576 197.058 762.576C196.41 762.576 195.762 762.612 195.114 762.684C193.29 762.9 192.102 763.308 191.55 763.908C190.998 764.508 190.722 765.336 190.722 766.392C190.722 766.584 190.734 766.8 190.758 767.04C190.974 769.584 192.042 770.856 193.962 770.856ZM214.735 753.144C213.031 753.144 211.603 753.96 210.451 755.592C209.323 757.224 208.759 759.48 208.759 762.36C208.759 765.24 209.275 767.376 210.307 768.768C211.363 770.16 212.743 770.856 214.447 770.856C216.583 770.856 218.479 770.496 220.135 769.776L220.243 770.028C218.539 770.772 216.547 771.144 214.267 771.144C211.987 771.144 210.091 770.424 208.579 768.984C207.067 767.544 206.311 765.324 206.311 762.324C206.311 759.324 207.103 756.996 208.687 755.34C210.271 753.684 212.287 752.856 214.735 752.856C216.103 752.856 217.363 753.168 218.515 753.792C219.691 754.416 220.555 755.364 221.107 756.636H218.803C218.443 755.46 217.891 754.584 217.147 754.008C216.427 753.432 215.623 753.144 214.735 753.144ZM231.472 771.144C228.952 771.144 226.9 770.424 225.316 768.984C223.732 767.544 222.94 765.324 222.94 762.324C222.94 759.324 223.756 756.996 225.388 755.34C227.044 753.684 229.132 752.856 231.652 752.856C234.196 752.856 236.26 753.576 237.844 755.016C239.428 756.456 240.22 758.676 240.22 761.676C240.22 764.676 239.392 767.004 237.736 768.66C236.104 770.316 234.016 771.144 231.472 771.144ZM231.724 753.144C229.9 753.144 228.388 753.96 227.188 755.592C225.988 757.2 225.388 759.456 225.388 762.36C225.388 765.24 225.94 767.376 227.044 768.768C228.148 770.16 229.612 770.856 231.436 770.856C233.26 770.856 234.772 770.052 235.972 768.444C237.172 766.812 237.772 764.556 237.772 761.676C237.772 758.772 237.22 756.624 236.116 755.232C235.012 753.84 233.548 753.144 231.724 753.144ZM245.605 766.86C245.605 768.756 246.109 769.968 247.117 770.496C247.597 770.736 248.209 770.856 248.953 770.856C250.465 770.856 251.809 770.28 252.985 769.128C254.185 767.976 254.833 766.908 254.929 765.924V753H257.449V768.444C257.449 769.14 257.581 769.68 257.845 770.064C258.133 770.424 258.421 770.616 258.709 770.64L259.105 770.712H260.221V771H258.025C257.041 771 256.285 770.784 255.757 770.352C255.253 769.92 254.989 769.488 254.965 769.056L254.929 768.444V766.896C254.497 767.928 253.729 768.9 252.625 769.812C251.521 770.7 250.309 771.144 248.989 771.144C247.693 771.144 246.625 771.024 245.785 770.784C244.969 770.52 244.381 770.16 244.021 769.704C243.397 768.96 243.085 768 243.085 766.824V753H245.605V766.86ZM276.974 771C275.99 771 275.234 770.784 274.706 770.352C274.202 769.92 273.938 769.488 273.914 769.056L273.878 768.444V757.14C273.878 755.244 273.386 754.032 272.402 753.504C271.898 753.264 271.274 753.144 270.53 753.144C268.994 753.144 267.614 753.756 266.39 754.98C265.166 756.18 264.554 757.26 264.554 758.22V771H262.034V753H264.554V757.104C264.962 756.072 265.718 755.112 266.822 754.224C267.926 753.312 269.138 752.856 270.458 752.856C271.778 752.856 272.846 752.988 273.662 753.252C274.502 753.492 275.114 753.84 275.498 754.296C276.098 755.04 276.398 756 276.398 757.176V768.444C276.398 769.14 276.53 769.68 276.794 770.064C277.082 770.424 277.37 770.616 277.658 770.64L278.054 770.712H279.17V771H276.974ZM280.803 753.288V753H281.559V749.4H284.079V753H289.587V753.288H284.079V766.392C284.079 767.952 284.247 769.08 284.583 769.776C284.943 770.472 285.675 770.82 286.779 770.82C287.907 770.82 289.047 770.592 290.199 770.136L290.307 770.424C289.107 770.88 287.727 771.108 286.167 771.108C284.631 771.108 283.479 770.796 282.711 770.172C281.943 769.524 281.559 768.252 281.559 766.356V753.288H280.803Z" fill="black"/>
<path fill-rule="evenodd" clip-rule="evenodd" d="M344.684 762.851C345.54 762.114 346.02 761.115 346.02 760.074C346.02 759.032 345.54 758.034 344.684 757.297L327.459 742.475C326.602 741.739 325.44 741.325 324.229 741.325C323.629 741.325 323.035 741.427 322.481 741.624C321.926 741.822 321.423 742.112 320.999 742.477C320.575 742.842 320.238 743.275 320.009 743.752C319.779 744.229 319.661 744.74 319.661 745.256C319.661 745.772 319.78 746.283 320.009 746.759C320.239 747.236 320.576 747.669 321 748.034L334.997 760.074L321 772.113C320.564 772.476 320.215 772.909 319.976 773.388C319.736 773.868 319.61 774.383 319.604 774.905C319.599 775.427 319.714 775.944 319.943 776.427C320.173 776.91 320.512 777.349 320.94 777.718C321.369 778.087 321.879 778.379 322.44 778.577C323.002 778.775 323.603 778.875 324.21 778.87C324.816 778.866 325.416 778.758 325.973 778.552C326.531 778.346 327.035 778.047 327.456 777.672L344.69 762.851H344.684Z" fill="#D7C0AE"/>
<path d="M161.403 159H266.607ZM159.711 143H268.299ZM171.865 95H256.135ZM171.865 95C165.877 95 162.888 95 160.681 95.96C158.743 96.8144 157.211 98.1652 156.326 99.8C155.326 101.664 155.574 104.072 156.088 108.888L164.006 183.584C164.887 191.84 165.323 195.984 167.589 199.104C169.591 201.858 172.565 204.064 176.131 205.44C180.189 207 185.306 207 195.57 207H232.44C242.694 207 247.821 207 251.869 205.44C255.435 204.064 258.409 201.858 260.411 199.104C262.687 195.984 263.123 191.848 263.994 183.584L271.912 108.88C272.426 104.064 272.684 101.664 271.684 99.808C270.803 98.1711 269.27 96.8194 267.329 95.968C265.122 95 262.113 95 256.135 95M171.865 95H162.037C153.129 95 148.675 95 146.091 93.496C144.96 92.8374 144.014 91.9931 143.315 91.0184C142.616 90.0437 142.179 88.9606 142.033 87.84C141.697 85.28 143.914 82.144 148.338 75.888C151.644 71.208 153.297 68.864 155.623 67.16C157.699 65.6354 160.151 64.4846 162.819 63.784C165.788 63 169.133 63 175.795 63H252.205C258.876 63 262.202 63 265.191 63.784C267.864 64.48 270.308 65.632 272.377 67.16C274.703 68.864 276.356 71.2 279.662 75.88C284.086 82.136 286.303 85.272 285.967 87.84C285.821 88.9606 285.384 90.0437 284.685 91.0184C283.986 91.9931 283.04 92.8374 281.909 93.496C279.345 95 274.871 95 265.983 95H256.135" fill="#EEE3CB" fill-opacity="0.25"/>
<path d="M161.403 159H266.607M159.711 143H268.299M171.865 95H256.135M171.865 95C165.877 95 162.888 95 160.681 95.96C158.743 96.8144 157.211 98.1652 156.326 99.8C155.326 101.664 155.574 104.072 156.088 108.888L164.006 183.584C164.887 191.84 165.323 195.984 167.589 199.104C169.591 201.858 172.565 204.064 176.131 205.44C180.189 207 185.306 207 195.57 207H232.44C242.694 207 247.821 207 251.869 205.44C255.435 204.064 258.409 201.858 260.411 199.104C262.687 195.984 263.123 191.848 263.994 183.584L271.912 108.88C272.426 104.064 272.684 101.664 271.684 99.808C270.803 98.1711 269.27 96.8194 267.329 95.968C265.122 95 262.113 95 256.135 95M171.865 95H162.037C153.129 95 148.675 95 146.091 93.496C144.96 92.8374 144.014 91.9931 143.315 91.0184C142.616 90.0437 142.179 88.9606 142.033 87.84C141.697 85.28 143.914 82.144 148.338 75.888C151.644 71.208 153.297 68.864 155.623 67.16C157.699 65.6354 160.151 64.4846 162.819 63.784C165.788 63 169.133 63 175.795 63H252.205C258.876 63 262.202 63 265.191 63.784C267.864 64.48 270.308 65.632 272.377 67.16C274.703 68.864 276.356 71.2 279.662 75.88C284.086 82.136 286.303 85.272 285.967 87.84C285.821 88.9606 285.384 90.0437 284.685 91.0184C283.986 91.9931 283.04 92.8374 281.909 93.496C279.345 95 274.871 95 265.983 95H256.135" stroke="#967E76" stroke-width="3" stroke-linecap="round" stroke-linejoin="round"/>
<path d="M87 196.5C187.588 225.11 243.117 225.545 340.5 196.5" stroke="#967E76" stroke-width="3"/>
<path d="M203.886 149.04C203.413 149.04 203.016 149.267 202.696 149.72C202.383 150.173 202.226 150.8 202.226 151.6C202.226 152.4 202.37 152.993 202.656 153.38C202.95 153.767 203.333 153.96 203.806 153.96C204.4 153.96 204.926 153.86 205.386 153.66L205.416 153.73C204.943 153.937 204.39 154.04 203.756 154.04C203.123 154.04 202.596 153.84 202.176 153.44C201.756 153.04 201.546 152.423 201.546 151.59C201.546 150.757 201.766 150.11 202.206 149.65C202.646 149.19 203.206 148.96 203.886 148.96C204.266 148.96 204.616 149.047 204.936 149.22C205.263 149.393 205.503 149.657 205.656 150.01H205.016C204.916 149.683 204.763 149.44 204.556 149.28C204.356 149.12 204.133 149.04 203.886 149.04ZM208.536 154.04C207.836 154.04 207.266 153.84 206.826 153.44C206.386 153.04 206.166 152.423 206.166 151.59C206.166 150.757 206.392 150.11 206.846 149.65C207.306 149.19 207.886 148.96 208.586 148.96C209.292 148.96 209.866 149.16 210.306 149.56C210.746 149.96 210.966 150.577 210.966 151.41C210.966 152.243 210.736 152.89 210.276 153.35C209.822 153.81 209.242 154.04 208.536 154.04ZM208.606 149.04C208.099 149.04 207.679 149.267 207.346 149.72C207.012 150.167 206.846 150.793 206.846 151.6C206.846 152.4 206.999 152.993 207.306 153.38C207.612 153.767 208.019 153.96 208.526 153.96C209.032 153.96 209.452 153.737 209.786 153.29C210.119 152.837 210.286 152.21 210.286 151.41C210.286 150.603 210.132 150.007 209.826 149.62C209.519 149.233 209.112 149.04 208.606 149.04ZM212.426 148.53V149H213.216V149.08H212.426V154H211.726V149.08H211.516V149H211.726V148.53C211.726 147.803 211.883 147.287 212.196 146.98C212.509 146.667 213.016 146.507 213.716 146.5V146.58C213.256 146.587 212.926 146.743 212.726 147.05C212.526 147.35 212.426 147.843 212.426 148.53ZM214.78 148.53V149H215.57V149.08H214.78V154H214.08V149.08H213.87V149H214.08V148.53C214.08 147.803 214.236 147.287 214.55 146.98C214.863 146.667 215.37 146.507 216.07 146.5V146.58C215.61 146.587 215.28 146.743 215.08 147.05C214.88 147.35 214.78 147.843 214.78 148.53ZM216.953 151.56C216.953 152.387 217.096 152.993 217.383 153.38C217.676 153.767 218.06 153.96 218.533 153.96C219.2 153.96 219.793 153.86 220.313 153.66L220.343 153.73C219.81 153.937 219.206 154.04 218.533 154.04C217.866 154.04 217.323 153.84 216.903 153.44C216.483 153.04 216.273 152.423 216.273 151.59C216.273 150.757 216.493 150.11 216.933 149.65C217.373 149.19 217.933 148.96 218.613 148.96C219.16 148.96 219.62 149.123 219.993 149.45C220.366 149.777 220.553 150.26 220.553 150.9C220.553 150.933 220.553 150.967 220.553 151H216.983C216.963 151.18 216.953 151.367 216.953 151.56ZM219.873 150.92C219.866 150.28 219.743 149.807 219.503 149.5C219.263 149.193 218.953 149.04 218.573 149.04C218.193 149.04 217.853 149.207 217.553 149.54C217.26 149.873 217.073 150.333 216.993 150.92H219.873ZM221.943 151.56C221.943 152.387 222.087 152.993 222.373 153.38C222.667 153.767 223.05 153.96 223.523 153.96C224.19 153.96 224.783 153.86 225.303 153.66L225.333 153.73C224.8 153.937 224.197 154.04 223.523 154.04C222.857 154.04 222.313 153.84 221.893 153.44C221.473 153.04 221.263 152.423 221.263 151.59C221.263 150.757 221.483 150.11 221.923 149.65C222.363 149.19 222.923 148.96 223.603 148.96C224.15 148.96 224.61 149.123 224.983 149.45C225.357 149.777 225.543 150.26 225.543 150.9C225.543 150.933 225.543 150.967 225.543 151H221.973C221.953 151.18 221.943 151.367 221.943 151.56ZM224.863 150.92C224.857 150.28 224.733 149.807 224.493 149.5C224.253 149.193 223.943 149.04 223.563 149.04C223.183 149.04 222.843 149.207 222.543 149.54C222.25 149.873 222.063 150.333 221.983 150.92H224.863Z" fill="white"/>
</svg>
