<svg width="428" height="926" viewBox="0 0 428 926" fill="none" xmlns="http://www.w3.org/2000/svg">
<rect width="428" height="926" fill="#9BABB8"/>
<path d="M161.403 188H266.607H161.403ZM159.711 172H268.299H159.711ZM171.865 124H256.135H171.865ZM171.865 124C165.877 124 162.888 124 160.681 124.96C158.743 125.814 157.211 127.165 156.326 128.8C155.326 130.664 155.574 133.072 156.088 137.888L164.006 212.584C164.887 220.84 165.323 224.984 167.589 228.104C169.591 230.858 172.565 233.064 176.131 234.44C180.189 236 185.306 236 195.57 236H232.44C242.694 236 247.821 236 251.869 234.44C255.435 233.064 258.409 230.858 260.411 228.104C262.687 224.984 263.123 220.848 263.994 212.584L271.912 137.88C272.426 133.064 272.684 130.664 271.684 128.808C270.803 127.171 269.27 125.819 267.329 124.968C265.122 124 262.113 124 256.135 124M171.865 124H162.037C153.129 124 148.675 124 146.091 122.496C144.96 121.837 144.014 120.993 143.315 120.018C142.616 119.044 142.179 117.961 142.033 116.84C141.697 114.28 143.914 111.144 148.338 104.888C151.644 100.208 153.297 97.864 155.623 96.16C157.699 94.6354 160.151 93.4846 162.819 92.784C165.788 92 169.133 92 175.795 92H252.205C258.876 92 262.202 92 265.191 92.784C267.864 93.48 270.308 94.632 272.377 96.16C274.703 97.864 276.356 100.2 279.662 104.88C284.086 111.136 286.303 114.272 285.967 116.84C285.821 117.961 285.384 119.044 284.685 120.018C283.986 120.993 283.04 121.837 281.909 122.496C279.345 124 274.871 124 265.983 124H256.135" fill="#EEE3CB" fill-opacity="0.25"/>
<path d="M161.403 188H266.607M159.711 172H268.299M171.865 124H256.135M171.865 124C165.877 124 162.888 124 160.681 124.96C158.743 125.814 157.211 127.165 156.326 128.8C155.326 130.664 155.574 133.072 156.088 137.888L164.006 212.584C164.887 220.84 165.323 224.984 167.589 228.104C169.591 230.858 172.565 233.064 176.131 234.44C180.189 236 185.306 236 195.57 236H232.44C242.694 236 247.821 236 251.869 234.44C255.435 233.064 258.409 230.858 260.411 228.104C262.687 224.984 263.123 220.848 263.994 212.584L271.912 137.88C272.426 133.064 272.684 130.664 271.684 128.808C270.803 127.171 269.27 125.819 267.329 124.968C265.122 124 262.113 124 256.135 124M171.865 124H162.037C153.129 124 148.675 124 146.091 122.496C144.96 121.837 144.014 120.993 143.315 120.018C142.616 119.044 142.179 117.961 142.033 116.84C141.697 114.28 143.914 111.144 148.338 104.888C151.644 100.208 153.297 97.864 155.623 96.16C157.699 94.6354 160.151 93.4846 162.819 92.784C165.788 92 169.133 92 175.795 92H252.205C258.876 92 262.202 92 265.191 92.784C267.864 93.48 270.308 94.632 272.377 96.16C274.703 97.864 276.356 100.2 279.662 104.88C284.086 111.136 286.303 114.272 285.967 116.84C285.821 117.961 285.384 119.044 284.685 120.018C283.986 120.993 283.04 121.837 281.909 122.496C279.345 124 274.871 124 265.983 124H256.135" stroke="#967E76" stroke-width="3" stroke-linecap="round" stroke-linejoin="round"/>
<rect x="62.5" y="682.5" width="301" height="45" rx="11.5" fill="#EEE3CB"/>
<path d="M113.5 705.045C113.5 695.084 105.436 687 95.5 687C85.564 687 77.5 695.084 77.5 705.045C77.5 713.779 83.692 721.051 91.9 722.729V710.459H88.3V705.045H91.9V700.534C91.9 697.051 94.726 694.218 98.2 694.218H102.7V699.632H99.1C98.11 699.632 97.3 700.444 97.3 701.436V705.045H102.7V710.459H97.3V723C106.39 722.098 113.5 714.411 113.5 705.045Z" fill="#9BABB8"/>
<path d="M141.949 713C140.541 713 139.653 712.632 139.285 711.896C139.205 711.736 139.165 711.592 139.165 711.464V695.024H140.845V711.296C140.845 711.76 140.933 712.12 141.109 712.376C141.301 712.616 141.493 712.744 141.685 712.76L141.949 712.808H142.693V713H141.949ZM148.996 713.096C147.316 713.096 145.948 712.616 144.892 711.656C143.836 710.696 143.308 709.216 143.308 707.216C143.308 705.216 143.852 703.664 144.94 702.56C146.044 701.456 147.436 700.904 149.116 700.904C150.812 700.904 152.188 701.384 153.244 702.344C154.3 703.304 154.828 704.784 154.828 706.784C154.828 708.784 154.276 710.336 153.172 711.44C152.084 712.544 150.692 713.096 148.996 713.096ZM149.164 701.096C147.948 701.096 146.94 701.64 146.14 702.728C145.34 703.8 144.94 705.304 144.94 707.24C144.94 709.16 145.308 710.584 146.044 711.512C146.78 712.44 147.756 712.904 148.972 712.904C150.188 712.904 151.196 712.368 151.996 711.296C152.796 710.208 153.196 708.704 153.196 706.784C153.196 704.848 152.828 703.416 152.092 702.488C151.356 701.56 150.38 701.096 149.164 701.096ZM156.617 707.432C156.617 705.352 157.121 703.744 158.129 702.608C159.137 701.472 160.649 700.904 162.665 700.904C164.153 700.904 165.665 701.168 167.201 701.696V713.288C167.185 717.096 165.521 719 162.209 719C160.385 719 158.825 718.408 157.529 717.224L157.697 717.08C159.073 718.232 160.577 718.808 162.209 718.808C164.417 718.808 165.521 716.968 165.521 713.288V710.912C165.217 711.472 164.713 711.968 164.009 712.4C163.305 712.832 162.473 713.048 161.513 713.048C158.249 712.968 156.617 711.096 156.617 707.432ZM161.537 712.856C162.609 712.856 163.529 712.568 164.297 711.992C165.065 711.416 165.473 710.848 165.521 710.288V701.816C164.369 701.336 163.393 701.096 162.593 701.096C161.169 701.096 160.097 701.656 159.377 702.776C158.657 703.88 158.297 705.432 158.297 707.432C158.297 711.048 159.377 712.856 161.537 712.856ZM172.638 713C171.982 713 171.478 712.856 171.126 712.568C170.79 712.28 170.614 711.992 170.598 711.704L170.574 711.296V701H172.254V711.296C172.254 711.76 172.342 712.12 172.518 712.376C172.71 712.616 172.894 712.744 173.07 712.76L173.358 712.808H174.102V713H172.638ZM170.718 698.312C170.526 698.12 170.43 697.88 170.43 697.592C170.43 697.304 170.526 697.064 170.718 696.872C170.91 696.664 171.15 696.56 171.438 696.56C171.726 696.56 171.966 696.664 172.158 696.872C172.366 697.064 172.47 697.304 172.47 697.592C172.47 697.88 172.366 698.12 172.158 698.312C171.966 698.504 171.726 698.6 171.438 698.6C171.15 698.6 170.91 698.504 170.718 698.312ZM185.518 713C184.862 713 184.358 712.856 184.006 712.568C183.67 712.28 183.494 711.992 183.478 711.704L183.454 711.296V703.76C183.454 702.496 183.126 701.688 182.47 701.336C182.134 701.176 181.718 701.096 181.222 701.096C180.198 701.096 179.278 701.504 178.462 702.32C177.646 703.12 177.238 703.84 177.238 704.48V713H175.558V701H177.238V703.736C177.51 703.048 178.014 702.408 178.75 701.816C179.486 701.208 180.294 700.904 181.174 700.904C182.054 700.904 182.766 700.992 183.31 701.168C183.87 701.328 184.278 701.56 184.534 701.864C184.934 702.36 185.134 703 185.134 703.784V711.296C185.134 711.76 185.222 712.12 185.398 712.376C185.59 712.616 185.782 712.744 185.974 712.76L186.238 712.808H186.982V713H185.518ZM211.898 701.144L212.042 701C212.106 701.032 212.186 701.128 212.282 701.288C212.394 701.448 212.458 701.592 212.474 701.72C212.506 701.848 212.522 701.968 212.522 702.08C212.522 702.512 212.426 702.952 212.234 703.4L207.866 713H207.626L204.17 703.712L199.946 713H199.706L195.242 701H196.922L200.594 710.936L204.05 703.424L203.162 701H204.842L208.514 710.936L211.994 703.4C212.186 703.064 212.282 702.664 212.282 702.2C212.282 701.736 212.154 701.384 211.898 701.144ZM216.303 713C215.647 713 215.143 712.856 214.791 712.568C214.455 712.28 214.279 711.992 214.263 711.704L214.239 711.296V701H215.919V711.296C215.919 711.76 216.007 712.12 216.183 712.376C216.375 712.616 216.559 712.744 216.735 712.76L217.023 712.808H217.767V713H216.303ZM214.383 698.312C214.191 698.12 214.095 697.88 214.095 697.592C214.095 697.304 214.191 697.064 214.383 696.872C214.575 696.664 214.815 696.56 215.103 696.56C215.391 696.56 215.631 696.664 215.823 696.872C216.031 697.064 216.135 697.304 216.135 697.592C216.135 697.88 216.031 698.12 215.823 698.312C215.631 698.504 215.391 698.6 215.103 698.6C214.815 698.6 214.575 698.504 214.383 698.312ZM219.57 701.192V701H220.074V698.6H221.754V701H225.426V701.192H221.754V709.928C221.754 710.968 221.866 711.72 222.09 712.184C222.33 712.648 222.818 712.88 223.554 712.88C224.306 712.88 225.066 712.728 225.834 712.424L225.906 712.616C225.106 712.92 224.186 713.072 223.146 713.072C222.122 713.072 221.354 712.864 220.842 712.448C220.33 712.016 220.074 711.168 220.074 709.904V701.192H219.57ZM237.06 713C236.404 713 235.9 712.856 235.548 712.568C235.212 712.28 235.036 711.992 235.02 711.704L234.996 711.296V703.76C234.996 702.496 234.66 701.688 233.988 701.336C233.668 701.176 233.26 701.096 232.764 701.096C231.772 701.096 230.876 701.504 230.076 702.32C229.292 703.12 228.9 703.84 228.9 704.48V713H227.22V695.024H228.9V703.736C229.156 703.048 229.644 702.408 230.364 701.816C231.084 701.208 231.892 700.904 232.788 700.904C234.34 700.904 235.372 701.176 235.884 701.72C236.412 702.248 236.676 702.936 236.676 703.784V711.296C236.676 711.76 236.764 712.12 236.94 712.376C237.132 712.616 237.316 712.744 237.492 712.76L237.78 712.808H238.524V713H237.06ZM249.551 699.872V701H251.447V701.192H249.551V713H247.871V701.192H247.367V701H247.871V699.872C247.871 698.128 248.247 696.888 248.999 696.152C249.751 695.4 250.967 695.016 252.647 695V695.192C251.543 695.208 250.751 695.584 250.271 696.32C249.791 697.04 249.551 698.224 249.551 699.872ZM263.048 713C261.96 713 261.216 712.792 260.816 712.376C260.448 712.024 260.264 711.72 260.264 711.464V710.96C259.48 712.384 258.224 713.096 256.496 713.096C254.48 713.096 253.336 712.184 253.064 710.36C253.032 710.168 253.016 709.976 253.016 709.784C253.016 709.576 253.048 709.352 253.112 709.112C253.176 708.872 253.36 708.608 253.664 708.32C254.272 707.744 255.608 707.392 257.672 707.264C258.184 707.216 258.656 707.192 259.088 707.192C259.52 707.192 259.912 707.208 260.264 707.24V703.256C260.232 703.24 260.232 703.168 260.264 703.04C260.296 702.896 260.264 702.72 260.168 702.512C260.088 702.288 259.976 702.072 259.832 701.864C259.688 701.656 259.432 701.48 259.064 701.336C258.696 701.176 258.216 701.096 257.624 701.096C257.032 701.096 256.336 701.208 255.536 701.432C254.752 701.64 254.176 701.848 253.808 702.056L253.712 701.888C255.136 701.232 256.584 700.904 258.056 700.904C259.704 700.904 260.792 701.2 261.32 701.792C261.736 702.256 261.944 702.744 261.944 703.256V711.296C261.944 711.76 262.032 712.12 262.208 712.376C262.4 712.616 262.592 712.744 262.784 712.76L263.048 712.808H263.792V713H263.048ZM256.88 712.904C257.728 712.904 258.488 712.616 259.16 712.04C259.848 711.448 260.216 710.88 260.264 710.336V707.432C259.832 707.4 259.392 707.384 258.944 707.384C258.512 707.384 258.08 707.408 257.648 707.456C256.432 707.6 255.64 707.872 255.272 708.272C254.904 708.672 254.72 709.224 254.72 709.928C254.72 710.056 254.728 710.2 254.744 710.36C254.888 712.056 255.6 712.904 256.88 712.904ZM270.728 701.096C269.592 701.096 268.64 701.64 267.872 702.728C267.12 703.816 266.744 705.32 266.744 707.24C266.744 709.16 267.088 710.584 267.776 711.512C268.48 712.44 269.4 712.904 270.536 712.904C271.96 712.904 273.224 712.664 274.328 712.184L274.4 712.352C273.264 712.848 271.936 713.096 270.416 713.096C268.896 713.096 267.632 712.616 266.624 711.656C265.616 710.696 265.112 709.216 265.112 707.216C265.112 705.216 265.64 703.664 266.696 702.56C267.752 701.456 269.096 700.904 270.728 700.904C271.64 700.904 272.48 701.112 273.248 701.528C274.032 701.944 274.608 702.576 274.976 703.424H273.44C273.2 702.64 272.832 702.056 272.336 701.672C271.856 701.288 271.32 701.096 270.728 701.096ZM278.065 707.144C278.065 709.128 278.409 710.584 279.097 711.512C279.801 712.44 280.721 712.904 281.857 712.904C283.457 712.904 284.881 712.664 286.129 712.184L286.201 712.352C284.921 712.848 283.473 713.096 281.857 713.096C280.257 713.096 278.953 712.616 277.945 711.656C276.937 710.696 276.433 709.216 276.433 707.216C276.433 705.216 276.961 703.664 278.017 702.56C279.073 701.456 280.417 700.904 282.049 700.904C283.361 700.904 284.465 701.296 285.361 702.08C286.257 702.864 286.705 704.024 286.705 705.56C286.705 705.64 286.705 705.72 286.705 705.8H278.137C278.089 706.232 278.065 706.68 278.065 707.144ZM285.073 705.608C285.057 704.072 284.761 702.936 284.185 702.2C283.609 701.464 282.865 701.096 281.953 701.096C281.041 701.096 280.225 701.496 279.505 702.296C278.801 703.096 278.353 704.2 278.161 705.608H285.073ZM287.683 695.024H289.363V703.976C289.635 703.24 290.139 702.544 290.875 701.888C291.611 701.232 292.443 700.904 293.371 700.904C296.619 700.904 298.243 702.808 298.243 706.616C298.243 710.936 296.147 713.096 291.955 713.096C290.723 713.096 289.299 712.896 287.683 712.496V695.024ZM293.347 701.096C292.355 701.096 291.459 701.528 290.659 702.392C289.859 703.24 289.427 704.008 289.363 704.696V712.352C290.339 712.72 291.195 712.904 291.931 712.904C295.019 712.904 296.563 710.8 296.563 706.592C296.563 702.928 295.491 701.096 293.347 701.096ZM305.839 713.096C304.159 713.096 302.791 712.616 301.735 711.656C300.679 710.696 300.151 709.216 300.151 707.216C300.151 705.216 300.695 703.664 301.783 702.56C302.887 701.456 304.279 700.904 305.959 700.904C307.655 700.904 309.031 701.384 310.087 702.344C311.143 703.304 311.671 704.784 311.671 706.784C311.671 708.784 311.119 710.336 310.015 711.44C308.927 712.544 307.535 713.096 305.839 713.096ZM306.007 701.096C304.791 701.096 303.783 701.64 302.983 702.728C302.183 703.8 301.783 705.304 301.783 707.24C301.783 709.16 302.151 710.584 302.887 711.512C303.623 712.44 304.599 712.904 305.815 712.904C307.031 712.904 308.039 712.368 308.839 711.296C309.639 710.208 310.039 708.704 310.039 706.784C310.039 704.848 309.671 703.416 308.935 702.488C308.199 701.56 307.223 701.096 306.007 701.096ZM319.269 713.096C317.589 713.096 316.221 712.616 315.165 711.656C314.109 710.696 313.581 709.216 313.581 707.216C313.581 705.216 314.125 703.664 315.213 702.56C316.317 701.456 317.709 700.904 319.389 700.904C321.085 700.904 322.461 701.384 323.517 702.344C324.573 703.304 325.101 704.784 325.101 706.784C325.101 708.784 324.549 710.336 323.445 711.44C322.357 712.544 320.965 713.096 319.269 713.096ZM319.437 701.096C318.221 701.096 317.213 701.64 316.413 702.728C315.613 703.8 315.213 705.304 315.213 707.24C315.213 709.16 315.581 710.584 316.317 711.512C317.053 712.44 318.029 712.904 319.245 712.904C320.461 712.904 321.469 712.368 322.269 711.296C323.069 710.208 323.469 708.704 323.469 706.784C323.469 704.848 323.101 703.416 322.365 702.488C321.629 701.56 320.653 701.096 319.437 701.096ZM328.462 695V706.952L333.742 701H333.982L330.07 705.416L335.23 713H333.55L329.11 706.472L328.462 707.216V713H326.782V695H328.462Z" fill="black"/>
<rect x="62.5" y="682.5" width="301" height="45" rx="11.5" stroke="#967E76" stroke-width="3"/>
<rect x="60.5" y="752.5" width="301" height="45" rx="11.5" fill="#EEE3CB"/>
<path d="M108.77 760.827L77.9151 761.174C77.2331 761.182 76.5824 761.484 76.1061 762.015C75.6298 762.545 75.3669 763.26 75.3753 764.003L75.627 786.402C75.6354 787.144 75.9143 787.853 76.4024 788.373C76.8905 788.893 77.5478 789.18 78.2297 789.173L109.085 788.826C109.767 788.818 110.418 788.516 110.894 787.985C111.37 787.455 111.633 786.74 111.625 785.997L111.373 763.598C111.365 762.856 111.086 762.147 110.598 761.627C110.11 761.107 109.452 760.82 108.77 760.827ZM105.973 763.659L93.4808 773.292L80.7749 763.942L105.973 763.659ZM78.1983 786.373L77.9608 765.248L92.7801 776.156C92.9971 776.316 93.2538 776.401 93.5157 776.398C93.7776 776.395 94.0323 776.305 94.2457 776.14L108.816 764.901L109.053 786.026L78.1983 786.373Z" fill="#9BABB8"/>
<path d="M156.3 771.84C156.044 771.632 155.628 771.456 155.052 771.312C154.492 771.168 154.068 771.096 153.78 771.096C153.492 771.096 153.324 771.096 153.276 771.096C152.412 771.112 151.788 771.336 151.404 771.768C151.02 772.184 150.828 772.656 150.828 773.184C150.828 773.712 150.996 774.16 151.332 774.528C151.668 774.88 152.084 775.16 152.58 775.368C153.092 775.56 153.636 775.784 154.212 776.04C154.804 776.296 155.348 776.56 155.844 776.832C156.356 777.088 156.78 777.472 157.116 777.984C157.452 778.48 157.62 779.104 157.62 779.856C157.62 780.608 157.356 781.248 156.828 781.776C156.3 782.304 155.708 782.656 155.052 782.832C154.412 783.008 153.716 783.096 152.964 783.096C151.332 783.096 150.108 782.736 149.292 782.016L149.436 781.872C149.756 782.176 150.228 782.424 150.852 782.616C151.492 782.808 152.108 782.904 152.7 782.904C153.644 782.904 154.42 782.648 155.028 782.136C155.652 781.608 155.964 780.96 155.964 780.192C155.964 779.408 155.732 778.784 155.268 778.32C154.804 777.84 154.236 777.472 153.564 777.216C152.908 776.944 152.244 776.68 151.572 776.424C150.9 776.152 150.332 775.784 149.868 775.32C149.404 774.84 149.172 774.288 149.172 773.664C149.172 773.04 149.316 772.536 149.604 772.152C149.892 771.752 150.276 771.472 150.756 771.312C151.572 771.04 152.388 770.904 153.204 770.904C154.58 770.904 155.652 771.16 156.42 771.672L156.3 771.84ZM161.396 783C160.74 783 160.236 782.856 159.884 782.568C159.548 782.28 159.372 781.992 159.356 781.704L159.332 781.296V771H161.012V781.296C161.012 781.76 161.1 782.12 161.276 782.376C161.468 782.616 161.652 782.744 161.828 782.76L162.116 782.808H162.86V783H161.396ZM159.476 768.312C159.284 768.12 159.188 767.88 159.188 767.592C159.188 767.304 159.284 767.064 159.476 766.872C159.668 766.664 159.908 766.56 160.196 766.56C160.484 766.56 160.724 766.664 160.916 766.872C161.124 767.064 161.228 767.304 161.228 767.592C161.228 767.88 161.124 768.12 160.916 768.312C160.724 768.504 160.484 768.6 160.196 768.6C159.908 768.6 159.668 768.504 159.476 768.312ZM174.275 783C173.619 783 173.115 782.856 172.763 782.568C172.427 782.28 172.251 781.992 172.235 781.704L172.211 781.296V773.76C172.211 772.496 171.883 771.688 171.227 771.336C170.891 771.176 170.475 771.096 169.979 771.096C168.955 771.096 168.035 771.504 167.219 772.32C166.403 773.12 165.995 773.84 165.995 774.48V783H164.315V771H165.995V773.736C166.267 773.048 166.771 772.408 167.507 771.816C168.243 771.208 169.051 770.904 169.931 770.904C170.811 770.904 171.523 770.992 172.067 771.168C172.627 771.328 173.035 771.56 173.291 771.864C173.691 772.36 173.891 773 173.891 773.784V781.296C173.891 781.76 173.979 782.12 174.155 782.376C174.347 782.616 174.539 782.744 174.731 782.76L174.995 782.808H175.739V783H174.275ZM176.594 777.432C176.594 775.352 177.098 773.744 178.106 772.608C179.114 771.472 180.626 770.904 182.642 770.904C184.13 770.904 185.642 771.168 187.178 771.696V783.288C187.162 787.096 185.498 789 182.186 789C180.362 789 178.802 788.408 177.506 787.224L177.674 787.08C179.05 788.232 180.554 788.808 182.186 788.808C184.394 788.808 185.498 786.968 185.498 783.288V780.912C185.194 781.472 184.69 781.968 183.986 782.4C183.282 782.832 182.45 783.048 181.49 783.048C178.226 782.968 176.594 781.096 176.594 777.432ZM181.514 782.856C182.586 782.856 183.506 782.568 184.274 781.992C185.042 781.416 185.45 780.848 185.498 780.288V771.816C184.346 771.336 183.37 771.096 182.57 771.096C181.146 771.096 180.074 771.656 179.354 772.776C178.634 773.88 178.274 775.432 178.274 777.432C178.274 781.048 179.354 782.856 181.514 782.856ZM197.824 780.24C197.824 781.504 198.16 782.312 198.832 782.664C199.152 782.824 199.56 782.904 200.056 782.904C201.064 782.904 201.96 782.52 202.744 781.752C203.544 780.984 203.976 780.272 204.04 779.616V771H205.72V781.296C205.72 781.76 205.808 782.12 205.984 782.376C206.176 782.616 206.368 782.744 206.56 782.76L206.824 782.808H207.568V783H206.104C205.448 783 204.944 782.856 204.592 782.568C204.256 782.28 204.08 781.992 204.064 781.704L204.04 781.296V780.264C203.752 780.952 203.24 781.6 202.504 782.208C201.768 782.8 200.96 783.096 200.08 783.096C199.216 783.096 198.504 783.016 197.944 782.856C197.4 782.68 197.008 782.44 196.768 782.136C196.352 781.64 196.144 781 196.144 780.216V771H197.824V780.24ZM209.016 771H210.696V773.976C210.968 773.24 211.472 772.544 212.208 771.888C212.944 771.232 213.776 770.904 214.704 770.904C217.952 770.904 219.576 772.808 219.576 776.616C219.576 780.936 217.48 783.096 213.288 783.096C212.536 783.096 211.672 782.92 210.696 782.568V789H209.016V771ZM214.68 771.096C213.688 771.096 212.792 771.528 211.992 772.392C211.192 773.24 210.76 774.008 210.696 774.696V782.352C211.672 782.72 212.528 782.904 213.264 782.904C216.352 782.904 217.896 780.8 217.896 776.592C217.896 772.928 216.824 771.096 214.68 771.096ZM245.211 771.144L245.355 771C245.419 771.032 245.499 771.128 245.595 771.288C245.707 771.448 245.771 771.592 245.787 771.72C245.819 771.848 245.835 771.968 245.835 772.08C245.835 772.512 245.739 772.952 245.547 773.4L241.179 783H240.939L237.483 773.712L233.259 783H233.019L228.555 771H230.235L233.907 780.936L237.363 773.424L236.475 771H238.155L241.827 780.936L245.307 773.4C245.499 773.064 245.595 772.664 245.595 772.2C245.595 771.736 245.467 771.384 245.211 771.144ZM249.615 783C248.959 783 248.455 782.856 248.103 782.568C247.767 782.28 247.591 781.992 247.575 781.704L247.551 781.296V771H249.231V781.296C249.231 781.76 249.319 782.12 249.495 782.376C249.687 782.616 249.871 782.744 250.047 782.76L250.335 782.808H251.079V783H249.615ZM247.695 768.312C247.503 768.12 247.407 767.88 247.407 767.592C247.407 767.304 247.503 767.064 247.695 766.872C247.887 766.664 248.127 766.56 248.415 766.56C248.703 766.56 248.943 766.664 249.135 766.872C249.343 767.064 249.447 767.304 249.447 767.592C249.447 767.88 249.343 768.12 249.135 768.312C248.943 768.504 248.703 768.6 248.415 768.6C248.127 768.6 247.887 768.504 247.695 768.312ZM252.883 771.192V771H253.387V768.6H255.067V771H258.739V771.192H255.067V779.928C255.067 780.968 255.179 781.72 255.403 782.184C255.643 782.648 256.131 782.88 256.867 782.88C257.619 782.88 258.379 782.728 259.147 782.424L259.219 782.616C258.419 782.92 257.499 783.072 256.459 783.072C255.435 783.072 254.667 782.864 254.155 782.448C253.643 782.016 253.387 781.168 253.387 779.904V771.192H252.883ZM270.372 783C269.716 783 269.212 782.856 268.86 782.568C268.524 782.28 268.348 781.992 268.332 781.704L268.308 781.296V773.76C268.308 772.496 267.972 771.688 267.3 771.336C266.98 771.176 266.572 771.096 266.076 771.096C265.084 771.096 264.188 771.504 263.388 772.32C262.604 773.12 262.212 773.84 262.212 774.48V783H260.532V765.024H262.212V773.736C262.468 773.048 262.956 772.408 263.676 771.816C264.396 771.208 265.204 770.904 266.1 770.904C267.652 770.904 268.684 771.176 269.196 771.72C269.724 772.248 269.988 772.936 269.988 773.784V781.296C269.988 781.76 270.076 782.12 270.252 782.376C270.444 782.616 270.628 782.744 270.804 782.76L271.092 782.808H271.836V783H270.372ZM295.272 773.76C295.272 772.784 295.144 772.096 294.888 771.696C294.632 771.296 294.144 771.096 293.424 771.096C292.464 771.096 291.608 771.496 290.856 772.296C290.12 773.096 289.752 773.816 289.752 774.456V783H288.072V773.76C288.072 772.784 287.944 772.096 287.688 771.696C287.432 771.296 286.888 771.096 286.056 771.096C285.224 771.096 284.432 771.48 283.68 772.248C282.944 773.016 282.544 773.728 282.48 774.384V783H280.8V771H282.48V773.712C282.736 773.024 283.208 772.384 283.896 771.792C284.584 771.2 285.352 770.904 286.2 770.904C287.048 770.904 287.72 770.984 288.216 771.144C288.728 771.288 289.088 771.52 289.296 771.84C289.504 772.16 289.632 772.44 289.68 772.68C289.728 772.92 289.752 773.256 289.752 773.688C290.008 773 290.472 772.368 291.144 771.792C291.816 771.2 292.536 770.904 293.304 770.904C294.072 770.904 294.688 770.968 295.152 771.096C295.616 771.224 295.96 771.368 296.184 771.528C296.424 771.688 296.6 771.92 296.712 772.224C296.84 772.528 296.912 772.776 296.928 772.968C296.944 773.16 296.952 773.432 296.952 773.784V781.296C296.952 781.76 297.04 782.12 297.216 782.376C297.408 782.616 297.6 782.744 297.792 782.76L298.056 782.808H298.8V783H297.336C296.68 783 296.176 782.856 295.824 782.568C295.488 782.28 295.312 781.992 295.296 781.704L295.272 781.296V773.76ZM309.438 783C308.35 783 307.606 782.792 307.206 782.376C306.838 782.024 306.654 781.72 306.654 781.464V780.96C305.87 782.384 304.614 783.096 302.886 783.096C300.87 783.096 299.726 782.184 299.454 780.36C299.422 780.168 299.406 779.976 299.406 779.784C299.406 779.576 299.438 779.352 299.502 779.112C299.566 778.872 299.75 778.608 300.054 778.32C300.662 777.744 301.998 777.392 304.062 777.264C304.574 777.216 305.046 777.192 305.478 777.192C305.91 777.192 306.302 777.208 306.654 777.24V773.256C306.622 773.24 306.622 773.168 306.654 773.04C306.686 772.896 306.654 772.72 306.558 772.512C306.478 772.288 306.366 772.072 306.222 771.864C306.078 771.656 305.822 771.48 305.454 771.336C305.086 771.176 304.606 771.096 304.014 771.096C303.422 771.096 302.726 771.208 301.926 771.432C301.142 771.64 300.566 771.848 300.198 772.056L300.102 771.888C301.526 771.232 302.974 770.904 304.446 770.904C306.094 770.904 307.182 771.2 307.71 771.792C308.126 772.256 308.334 772.744 308.334 773.256V781.296C308.334 781.76 308.422 782.12 308.598 782.376C308.79 782.616 308.982 782.744 309.174 782.76L309.438 782.808H310.182V783H309.438ZM303.27 782.904C304.118 782.904 304.878 782.616 305.55 782.04C306.238 781.448 306.606 780.88 306.654 780.336V777.432C306.222 777.4 305.782 777.384 305.334 777.384C304.902 777.384 304.47 777.408 304.038 777.456C302.822 777.6 302.03 777.872 301.662 778.272C301.294 778.672 301.11 779.224 301.11 779.928C301.11 780.056 301.118 780.2 301.134 780.36C301.278 782.056 301.99 782.904 303.27 782.904ZM313.951 783C313.295 783 312.791 782.856 312.439 782.568C312.103 782.28 311.927 781.992 311.911 781.704L311.887 781.296V771H313.567V781.296C313.567 781.76 313.655 782.12 313.831 782.376C314.023 782.616 314.207 782.744 314.383 782.76L314.671 782.808H315.415V783H313.951ZM312.031 768.312C311.839 768.12 311.743 767.88 311.743 767.592C311.743 767.304 311.839 767.064 312.031 766.872C312.223 766.664 312.463 766.56 312.751 766.56C313.039 766.56 313.279 766.664 313.471 766.872C313.679 767.064 313.783 767.304 313.783 767.592C313.783 767.88 313.679 768.12 313.471 768.312C313.279 768.504 313.039 768.6 312.751 768.6C312.463 768.6 312.223 768.504 312.031 768.312ZM320.387 783C318.979 783 318.091 782.632 317.723 781.896C317.643 781.736 317.603 781.592 317.603 781.464V765.024H319.283V781.296C319.283 781.76 319.371 782.12 319.547 782.376C319.739 782.616 319.931 782.744 320.123 782.76L320.387 782.808H321.131V783H320.387Z" fill="black"/>
<rect x="60.5" y="752.5" width="301" height="45" rx="11.5" stroke="#967E76" stroke-width="3"/>
<path d="M286.932 324.134C286.908 323.955 286.592 323.955 286.569 324.134C285.781 330.057 281.75 331.278 281.75 335.394C281.75 337.938 284.039 340 286.75 340C289.461 340 291.75 337.938 291.75 335.394C291.75 331.278 287.72 330.057 286.932 324.134ZM286.17 330.682C286.117 330.864 286.06 331.052 286.001 331.247C285.643 332.433 285.237 333.779 285.237 335.335C285.237 336.178 284.703 336.478 284.205 336.478C284.069 336.477 283.934 336.451 283.809 336.402C283.683 336.353 283.569 336.281 283.474 336.191C283.378 336.101 283.302 335.994 283.25 335.876C283.199 335.759 283.172 335.633 283.173 335.506C283.173 333.667 284.121 332.465 284.959 331.406C285.222 331.074 285.469 330.76 285.67 330.448C285.762 330.304 286.009 330.311 286.122 330.453C286.175 330.519 286.192 330.604 286.17 330.682Z" fill="#FFF9F9"/>
<path d="M150.724 351.256C147.694 351.256 145.156 352.707 143.108 355.608C141.102 358.509 140.1 362.52 140.1 367.64C140.1 372.76 141.017 376.557 142.852 379.032C144.729 381.507 147.182 382.744 150.212 382.744C154.009 382.744 157.38 382.104 160.324 380.824L160.516 381.272C157.486 382.595 153.945 383.256 149.892 383.256C145.838 383.256 142.468 381.976 139.78 379.416C137.092 376.856 135.748 372.909 135.748 367.576C135.748 362.243 137.156 358.104 139.972 355.16C142.788 352.216 146.372 350.744 150.724 350.744C153.156 350.744 155.396 351.299 157.444 352.408C159.534 353.517 161.07 355.203 162.052 357.464H157.956C157.316 355.373 156.334 353.816 155.012 352.792C153.732 351.768 152.302 351.256 150.724 351.256ZM180.478 383.256C175.998 383.256 172.35 381.976 169.534 379.416C166.718 376.856 165.31 372.909 165.31 367.576C165.31 362.243 166.761 358.104 169.662 355.16C172.606 352.216 176.318 350.744 180.798 350.744C185.321 350.744 188.99 352.024 191.806 354.584C194.622 357.144 196.03 361.091 196.03 366.424C196.03 371.757 194.558 375.896 191.614 378.84C188.713 381.784 185.001 383.256 180.478 383.256ZM180.926 351.256C177.683 351.256 174.995 352.707 172.862 355.608C170.729 358.467 169.662 362.477 169.662 367.64C169.662 372.76 170.643 376.557 172.606 379.032C174.569 381.507 177.171 382.744 180.414 382.744C183.657 382.744 186.345 381.315 188.478 378.456C190.611 375.555 191.678 371.544 191.678 366.424C191.678 361.261 190.697 357.443 188.734 354.968C186.771 352.493 184.169 351.256 180.926 351.256ZM205.377 347.992V351H210.433V351.512H205.377V383H200.897V351.512H199.553V351H200.897V347.992C200.897 343.341 201.899 340.035 203.905 338.072C205.91 336.067 209.153 335.043 213.633 335V335.512C210.689 335.555 208.577 336.557 207.297 338.52C206.017 340.44 205.377 343.597 205.377 347.992ZM220.439 347.992V351H225.495V351.512H220.439V383H215.959V351.512H214.615V351H215.959V347.992C215.959 343.341 216.962 340.035 218.967 338.072C220.972 336.067 224.215 335.043 228.695 335V335.512C225.751 335.555 223.639 336.557 222.359 338.52C221.079 340.44 220.439 343.597 220.439 347.992ZM234.35 367.384C234.35 372.675 235.267 376.557 237.102 379.032C238.979 381.507 241.432 382.744 244.462 382.744C248.728 382.744 252.526 382.104 255.854 380.824L256.046 381.272C252.632 382.595 248.771 383.256 244.462 383.256C240.195 383.256 236.718 381.976 234.03 379.416C231.342 376.856 229.998 372.909 229.998 367.576C229.998 362.243 231.406 358.104 234.222 355.16C237.038 352.216 240.622 350.744 244.974 350.744C248.472 350.744 251.416 351.789 253.806 353.88C256.195 355.971 257.39 359.064 257.39 363.16C257.39 363.373 257.39 363.587 257.39 363.8H234.542C234.414 364.952 234.35 366.147 234.35 367.384ZM253.038 363.288C252.995 359.192 252.206 356.163 250.67 354.2C249.134 352.237 247.15 351.256 244.718 351.256C242.286 351.256 240.11 352.323 238.19 354.456C236.312 356.589 235.118 359.533 234.606 363.288H253.038ZM266.287 367.384C266.287 372.675 267.204 376.557 269.039 379.032C270.916 381.507 273.37 382.744 276.399 382.744C280.666 382.744 284.463 382.104 287.791 380.824L287.983 381.272C284.57 382.595 280.708 383.256 276.399 383.256C272.132 383.256 268.655 381.976 265.967 379.416C263.279 376.856 261.935 372.909 261.935 367.576C261.935 362.243 263.343 358.104 266.159 355.16C268.975 352.216 272.559 350.744 276.911 350.744C280.41 350.744 283.354 351.789 285.743 353.88C288.132 355.971 289.327 359.064 289.327 363.16C289.327 363.373 289.327 363.587 289.327 363.8H266.479C266.351 364.952 266.287 366.147 266.287 367.384ZM284.975 363.288C284.932 359.192 284.143 356.163 282.607 354.2C281.071 352.237 279.087 351.256 276.655 351.256C274.223 351.256 272.047 352.323 270.127 354.456C268.25 356.589 267.055 359.533 266.543 363.288H284.975Z" fill="white"/>
<path d="M85.5 399C186.088 427.61 241.617 428.045 339 399" stroke="#967E76" stroke-width="3"/>
<rect x="60.5" y="612.5" width="301" height="45" rx="11.5" fill="#EEE3CB"/>
<rect x="60.5" y="612.5" width="301" height="45" rx="11.5" stroke="#967E76" stroke-width="3"/>
<rect x="60.5" y="542.5" width="301" height="45" rx="11.5" fill="#EEE3CB"/>
<rect x="60.5" y="542.5" width="301" height="45" rx="11.5" stroke="#967E76" stroke-width="3"/>
<path d="M77.592 566.144C77.592 568.128 77.936 569.584 78.624 570.512C79.328 571.44 80.248 571.904 81.384 571.904C82.984 571.904 84.408 571.664 85.656 571.184L85.728 571.352C84.448 571.848 83 572.096 81.384 572.096C79.784 572.096 78.48 571.616 77.472 570.656C76.464 569.696 75.96 568.216 75.96 566.216C75.96 564.216 76.488 562.664 77.544 561.56C78.6 560.456 79.944 559.904 81.576 559.904C82.888 559.904 83.992 560.296 84.888 561.08C85.784 561.864 86.232 563.024 86.232 564.56C86.232 564.64 86.232 564.72 86.232 564.8H77.664C77.616 565.232 77.592 565.68 77.592 566.144ZM84.6 564.608C84.584 563.072 84.288 561.936 83.712 561.2C83.136 560.464 82.392 560.096 81.48 560.096C80.568 560.096 79.752 560.496 79.032 561.296C78.328 562.096 77.88 563.2 77.688 564.608H84.6ZM101.682 562.76C101.682 561.784 101.554 561.096 101.298 560.696C101.042 560.296 100.554 560.096 99.834 560.096C98.874 560.096 98.018 560.496 97.266 561.296C96.53 562.096 96.162 562.816 96.162 563.456V572H94.482V562.76C94.482 561.784 94.354 561.096 94.098 560.696C93.842 560.296 93.298 560.096 92.466 560.096C91.634 560.096 90.842 560.48 90.09 561.248C89.354 562.016 88.954 562.728 88.89 563.384V572H87.21V560H88.89V562.712C89.146 562.024 89.618 561.384 90.306 560.792C90.994 560.2 91.762 559.904 92.61 559.904C93.458 559.904 94.13 559.984 94.626 560.144C95.138 560.288 95.498 560.52 95.706 560.84C95.914 561.16 96.042 561.44 96.09 561.68C96.138 561.92 96.162 562.256 96.162 562.688C96.418 562 96.882 561.368 97.554 560.792C98.226 560.2 98.946 559.904 99.714 559.904C100.482 559.904 101.098 559.968 101.562 560.096C102.026 560.224 102.37 560.368 102.594 560.528C102.834 560.688 103.01 560.92 103.122 561.224C103.25 561.528 103.322 561.776 103.338 561.968C103.354 562.16 103.362 562.432 103.362 562.784V570.296C103.362 570.76 103.45 571.12 103.626 571.376C103.818 571.616 104.01 571.744 104.202 571.76L104.466 571.808H105.21V572H103.746C103.09 572 102.586 571.856 102.234 571.568C101.898 571.28 101.722 570.992 101.706 570.704L101.682 570.296V562.76ZM115.849 572C114.761 572 114.017 571.792 113.617 571.376C113.249 571.024 113.065 570.72 113.065 570.464V569.96C112.281 571.384 111.025 572.096 109.297 572.096C107.281 572.096 106.137 571.184 105.865 569.36C105.833 569.168 105.817 568.976 105.817 568.784C105.817 568.576 105.849 568.352 105.913 568.112C105.977 567.872 106.161 567.608 106.465 567.32C107.073 566.744 108.409 566.392 110.473 566.264C110.985 566.216 111.457 566.192 111.889 566.192C112.321 566.192 112.713 566.208 113.065 566.24V562.256C113.033 562.24 113.033 562.168 113.065 562.04C113.097 561.896 113.065 561.72 112.969 561.512C112.889 561.288 112.777 561.072 112.633 560.864C112.489 560.656 112.233 560.48 111.865 560.336C111.497 560.176 111.017 560.096 110.425 560.096C109.833 560.096 109.137 560.208 108.337 560.432C107.553 560.64 106.977 560.848 106.609 561.056L106.513 560.888C107.937 560.232 109.385 559.904 110.857 559.904C112.505 559.904 113.593 560.2 114.121 560.792C114.537 561.256 114.745 561.744 114.745 562.256V570.296C114.745 570.76 114.833 571.12 115.009 571.376C115.201 571.616 115.393 571.744 115.585 571.76L115.849 571.808H116.593V572H115.849ZM109.681 571.904C110.529 571.904 111.289 571.616 111.961 571.04C112.649 570.448 113.017 569.88 113.065 569.336V566.432C112.633 566.4 112.193 566.384 111.745 566.384C111.313 566.384 110.881 566.408 110.449 566.456C109.233 566.6 108.441 566.872 108.073 567.272C107.705 567.672 107.521 568.224 107.521 568.928C107.521 569.056 107.529 569.2 107.545 569.36C107.689 571.056 108.401 571.904 109.681 571.904ZM120.361 572C119.705 572 119.201 571.856 118.849 571.568C118.513 571.28 118.337 570.992 118.321 570.704L118.297 570.296V560H119.977V570.296C119.977 570.76 120.065 571.12 120.241 571.376C120.433 571.616 120.617 571.744 120.793 571.76L121.081 571.808H121.825V572H120.361ZM118.441 557.312C118.249 557.12 118.153 556.88 118.153 556.592C118.153 556.304 118.249 556.064 118.441 555.872C118.633 555.664 118.873 555.56 119.161 555.56C119.449 555.56 119.689 555.664 119.881 555.872C120.089 556.064 120.193 556.304 120.193 556.592C120.193 556.88 120.089 557.12 119.881 557.312C119.689 557.504 119.449 557.6 119.161 557.6C118.873 557.6 118.633 557.504 118.441 557.312ZM126.797 572C125.389 572 124.501 571.632 124.133 570.896C124.053 570.736 124.013 570.592 124.013 570.464V554.024H125.693V570.296C125.693 570.76 125.781 571.12 125.957 571.376C126.149 571.616 126.341 571.744 126.533 571.76L126.797 571.808H127.541V572H126.797Z" fill="black"/>
<path d="M76.2 631H77.88V633.976C78.152 633.24 78.656 632.544 79.392 631.888C80.128 631.232 80.96 630.904 81.888 630.904C85.136 630.904 86.76 632.808 86.76 636.616C86.76 640.936 84.664 643.096 80.472 643.096C79.72 643.096 78.856 642.92 77.88 642.568V649H76.2V631ZM81.864 631.096C80.872 631.096 79.976 631.528 79.176 632.392C78.376 633.24 77.944 634.008 77.88 634.696V642.352C78.856 642.72 79.712 642.904 80.448 642.904C83.536 642.904 85.08 640.8 85.08 636.592C85.08 632.928 84.008 631.096 81.864 631.096ZM98.5986 643C97.5106 643 96.7666 642.792 96.3666 642.376C95.9986 642.024 95.8146 641.72 95.8146 641.464V640.96C95.0306 642.384 93.7746 643.096 92.0466 643.096C90.0306 643.096 88.8866 642.184 88.6146 640.36C88.5826 640.168 88.5666 639.976 88.5666 639.784C88.5666 639.576 88.5986 639.352 88.6626 639.112C88.7266 638.872 88.9106 638.608 89.2146 638.32C89.8226 637.744 91.1586 637.392 93.2226 637.264C93.7346 637.216 94.2066 637.192 94.6386 637.192C95.0706 637.192 95.4626 637.208 95.8146 637.24V633.256C95.7826 633.24 95.7826 633.168 95.8146 633.04C95.8466 632.896 95.8146 632.72 95.7186 632.512C95.6386 632.288 95.5266 632.072 95.3826 631.864C95.2386 631.656 94.9826 631.48 94.6146 631.336C94.2466 631.176 93.7666 631.096 93.1746 631.096C92.5826 631.096 91.8866 631.208 91.0866 631.432C90.3026 631.64 89.7266 631.848 89.3586 632.056L89.2626 631.888C90.6866 631.232 92.1346 630.904 93.6066 630.904C95.2546 630.904 96.3426 631.2 96.8706 631.792C97.2866 632.256 97.4946 632.744 97.4946 633.256V641.296C97.4946 641.76 97.5826 642.12 97.7586 642.376C97.9506 642.616 98.1426 642.744 98.3346 642.76L98.5986 642.808H99.3426V643H98.5986ZM92.4306 642.904C93.2786 642.904 94.0386 642.616 94.7106 642.04C95.3986 641.448 95.7666 640.88 95.8146 640.336V637.432C95.3826 637.4 94.9426 637.384 94.4946 637.384C94.0626 637.384 93.6306 637.408 93.1986 637.456C91.9826 637.6 91.1906 637.872 90.8226 638.272C90.4546 638.672 90.2706 639.224 90.2706 639.928C90.2706 640.056 90.2786 640.2 90.2946 640.36C90.4386 642.056 91.1506 642.904 92.4306 642.904ZM107.671 631.84C107.415 631.632 106.999 631.456 106.423 631.312C105.863 631.168 105.439 631.096 105.151 631.096C104.863 631.096 104.695 631.096 104.647 631.096C103.783 631.112 103.159 631.336 102.775 631.768C102.391 632.184 102.199 632.656 102.199 633.184C102.199 633.712 102.367 634.16 102.703 634.528C103.039 634.88 103.455 635.16 103.951 635.368C104.463 635.56 105.007 635.784 105.583 636.04C106.175 636.296 106.719 636.56 107.215 636.832C107.727 637.088 108.151 637.472 108.487 637.984C108.823 638.48 108.991 639.104 108.991 639.856C108.991 640.608 108.727 641.248 108.199 641.776C107.671 642.304 107.079 642.656 106.423 642.832C105.783 643.008 105.087 643.096 104.335 643.096C102.703 643.096 101.479 642.736 100.663 642.016L100.807 641.872C101.127 642.176 101.599 642.424 102.223 642.616C102.863 642.808 103.479 642.904 104.071 642.904C105.015 642.904 105.791 642.648 106.399 642.136C107.023 641.608 107.335 640.96 107.335 640.192C107.335 639.408 107.103 638.784 106.639 638.32C106.175 637.84 105.607 637.472 104.935 637.216C104.279 636.944 103.615 636.68 102.943 636.424C102.271 636.152 101.703 635.784 101.239 635.32C100.775 634.84 100.543 634.288 100.543 633.664C100.543 633.04 100.687 632.536 100.975 632.152C101.263 631.752 101.647 631.472 102.127 631.312C102.943 631.04 103.759 630.904 104.575 630.904C105.951 630.904 107.023 631.16 107.791 631.672L107.671 631.84ZM117.562 631.84C117.306 631.632 116.89 631.456 116.314 631.312C115.754 631.168 115.33 631.096 115.042 631.096C114.754 631.096 114.586 631.096 114.538 631.096C113.674 631.112 113.05 631.336 112.666 631.768C112.282 632.184 112.09 632.656 112.09 633.184C112.09 633.712 112.258 634.16 112.594 634.528C112.93 634.88 113.346 635.16 113.842 635.368C114.354 635.56 114.898 635.784 115.474 636.04C116.066 636.296 116.61 636.56 117.106 636.832C117.618 637.088 118.042 637.472 118.378 637.984C118.714 638.48 118.882 639.104 118.882 639.856C118.882 640.608 118.618 641.248 118.09 641.776C117.562 642.304 116.97 642.656 116.314 642.832C115.674 643.008 114.978 643.096 114.226 643.096C112.594 643.096 111.37 642.736 110.554 642.016L110.698 641.872C111.018 642.176 111.49 642.424 112.114 642.616C112.754 642.808 113.37 642.904 113.962 642.904C114.906 642.904 115.682 642.648 116.29 642.136C116.914 641.608 117.226 640.96 117.226 640.192C117.226 639.408 116.994 638.784 116.53 638.32C116.066 637.84 115.498 637.472 114.826 637.216C114.17 636.944 113.506 636.68 112.834 636.424C112.162 636.152 111.594 635.784 111.13 635.32C110.666 634.84 110.434 634.288 110.434 633.664C110.434 633.04 110.578 632.536 110.866 632.152C111.154 631.752 111.538 631.472 112.018 631.312C112.834 631.04 113.65 630.904 114.466 630.904C115.842 630.904 116.914 631.16 117.682 631.672L117.562 631.84ZM136.746 631.144L136.89 631C136.954 631.032 137.034 631.128 137.13 631.288C137.242 631.448 137.306 631.592 137.322 631.72C137.354 631.848 137.37 631.968 137.37 632.08C137.37 632.512 137.274 632.952 137.082 633.4L132.714 643H132.474L129.018 633.712L124.794 643H124.554L120.09 631H121.77L125.442 640.936L128.898 633.424L128.01 631H129.69L133.362 640.936L136.842 633.4C137.034 633.064 137.13 632.664 137.13 632.2C137.13 631.736 137.002 631.384 136.746 631.144ZM144.39 643.096C142.71 643.096 141.342 642.616 140.286 641.656C139.23 640.696 138.702 639.216 138.702 637.216C138.702 635.216 139.246 633.664 140.334 632.56C141.438 631.456 142.83 630.904 144.51 630.904C146.206 630.904 147.582 631.384 148.638 632.344C149.694 633.304 150.222 634.784 150.222 636.784C150.222 638.784 149.67 640.336 148.566 641.44C147.478 642.544 146.086 643.096 144.39 643.096ZM144.558 631.096C143.342 631.096 142.334 631.64 141.534 632.728C140.734 633.8 140.334 635.304 140.334 637.24C140.334 639.16 140.702 640.584 141.438 641.512C142.174 642.44 143.15 642.904 144.366 642.904C145.582 642.904 146.59 642.368 147.39 641.296C148.19 640.208 148.59 638.704 148.59 636.784C148.59 634.848 148.222 633.416 147.486 632.488C146.75 631.56 145.774 631.096 144.558 631.096ZM156.247 632.032V631.528C155.527 631.816 154.871 632.4 154.279 633.28C153.687 634.144 153.375 634.96 153.343 635.728V643H151.663V631H153.343V634.816C153.599 633.888 154.087 633.016 154.807 632.2C155.527 631.368 156.343 630.936 157.255 630.904H157.351C157.671 630.904 157.935 631.016 158.143 631.24C158.367 631.448 158.479 631.712 158.479 632.032C158.479 632.352 158.367 632.616 158.143 632.824C157.935 633.032 157.671 633.136 157.351 633.136C157.031 633.136 156.767 633.032 156.559 632.824C156.351 632.616 156.247 632.352 156.247 632.032ZM159.562 637.432C159.562 635.352 160.066 633.744 161.074 632.608C162.082 631.472 163.594 630.904 165.61 630.904C166.554 630.904 167.506 631.144 168.466 631.624V625.024H170.146V641.296C170.146 641.76 170.234 642.12 170.41 642.376C170.602 642.616 170.794 642.744 170.986 642.76L171.25 642.808H171.994V643H170.53C169.874 643 169.37 642.856 169.018 642.568C168.682 642.28 168.506 641.992 168.49 641.704L168.466 641.296V640.912C168.162 641.472 167.658 641.968 166.954 642.4C166.25 642.832 165.418 643.048 164.458 643.048C161.194 642.968 159.562 641.096 159.562 637.432ZM164.482 642.856C165.554 642.856 166.474 642.568 167.242 641.992C168.01 641.416 168.418 640.848 168.466 640.288V631.84C167.33 631.344 166.354 631.096 165.538 631.096C164.114 631.096 163.042 631.656 162.322 632.776C161.602 633.88 161.242 635.432 161.242 637.432C161.242 641.048 162.322 642.856 164.482 642.856Z" fill="black"/>
</svg>
